<svg width="45" height="26" viewBox="0 0 45 26" fill="none" xmlns="http://www.w3.org/2000/svg">
<path fill-rule="evenodd" clip-rule="evenodd" d="M37.8462 3.76923C39.8558 3.76923 41.6635 4.52885 42.9327 5.90385C44.2789 7.36539 45 9.46154 45 11.9519V21.5385C45 22.1731 44.4808 22.6923 43.8462 22.6923H41.2693C40.875 24.4231 39.3366 25.7115 37.4904 25.7115C35.6443 25.7115 34.1058 24.4135 33.7116 22.6923H19.8846C19.4904 24.4231 17.9519 25.7115 16.1058 25.7115C14.2596 25.7115 12.7116 24.4231 12.3269 22.6923H8.81733C8.18272 22.6923 7.66349 22.1731 7.66349 21.5385V17.5192H5.1731C4.53849 17.5192 4.01926 17 4.01926 16.3654C4.01926 15.7308 4.53849 15.2115 5.1731 15.2115H8.82695C9.46156 15.2115 9.98079 15.7308 9.98079 16.3654V20.3942H12.2596C12.3462 20.3942 12.4231 20.4038 12.5096 20.4231C13.0769 18.9904 14.4712 17.9712 16.1058 17.9712C17.7308 17.9712 19.125 18.9808 19.7019 20.4038C19.75 20.3942 19.7981 20.3942 19.8462 20.3942H30.7116V2.30769H9.98079V6.32692C9.98079 6.96154 9.46156 7.48077 8.82695 7.48077H5.1731C4.53849 7.48077 4.01926 6.96154 4.01926 6.32692C4.01926 5.69231 4.53849 5.17308 5.1731 5.17308H7.66349V1.15385C7.66349 0.519231 8.18272 0 8.81733 0H31.8558C32.4904 0 33.0096 0.519231 33.0096 1.15385V3.76923H37.8462ZM14.5385 21.8462C14.5385 22.7115 15.2404 23.4135 16.1058 23.4135C16.9712 23.4135 17.6731 22.7115 17.6731 21.8462C17.6731 20.9808 16.9712 20.2788 16.1058 20.2788C15.2404 20.2788 14.5385 20.9808 14.5385 21.8462ZM35.9231 21.8462C35.9231 22.7115 36.625 23.4135 37.4904 23.4135C38.3462 23.4135 39.0481 22.7115 39.0577 21.8462C39.0577 20.9808 38.3558 20.2788 37.4904 20.2788C36.625 20.2788 35.9231 20.9808 35.9231 21.8462ZM41.0769 20.3942H42.6923V11.9615C42.6923 8.27885 40.8846 6.07692 37.8558 6.07692H33.0193V20.3942H33.9039C34.4808 18.9712 35.875 17.9712 37.4904 17.9712C39.1058 17.9712 40.5 18.9808 41.0769 20.3942Z" fill="#171717"/>
<path d="M17.8173 15.1442C17.3654 14.6923 17.3654 13.9615 17.8173 13.5096L18.8077 12.4519H1.15385C0.519231 12.4519 0 11.9327 0 11.298C0 10.6634 0.519231 10.1442 1.15385 10.1442H18.8173L17.9615 9.28844C17.5096 8.83651 17.5096 8.10575 17.9615 7.65382C18.4135 7.2019 19.1442 7.2019 19.5962 7.65382L22.4327 10.4904C22.4423 10.5048 22.4543 10.5168 22.4663 10.5288C22.4784 10.5408 22.4904 10.5529 22.5 10.5673C22.5048 10.5769 22.5096 10.5841 22.5144 10.5913C22.5192 10.5985 22.524 10.6057 22.5288 10.6154C22.5481 10.6346 22.5577 10.6442 22.5673 10.6634L22.5962 10.7211C22.601 10.7307 22.6058 10.738 22.6106 10.7452C22.6154 10.7524 22.6202 10.7596 22.625 10.7692L22.6538 10.8269C22.6538 10.841 22.659 10.8499 22.6655 10.8612C22.6679 10.8654 22.6705 10.8698 22.6731 10.875C22.6779 10.8846 22.6803 10.8942 22.6827 10.9038C22.6851 10.9134 22.6875 10.923 22.6923 10.9327C22.6977 10.9381 22.7001 10.9465 22.7028 10.9563C22.705 10.9639 22.7073 10.9723 22.7115 10.9807C22.7115 10.9904 22.7139 11 22.7163 11.0096C22.7188 11.0192 22.7212 11.0288 22.7212 11.0384C22.7212 11.048 22.7236 11.0577 22.726 11.0673C22.7284 11.0769 22.7308 11.0865 22.7308 11.0961C22.7308 11.112 22.7337 11.125 22.7363 11.1366C22.7384 11.1461 22.7404 11.1548 22.7404 11.1634C22.75 11.1827 22.75 11.1923 22.75 11.2115C22.7596 11.2884 22.7596 11.3654 22.75 11.4423C22.75 11.4519 22.7476 11.4591 22.7452 11.4663C22.7428 11.4735 22.7404 11.4807 22.7404 11.4904C22.7404 11.5062 22.7375 11.5192 22.7348 11.5309C22.7327 11.5404 22.7308 11.549 22.7308 11.5577C22.7308 11.5673 22.7284 11.5769 22.726 11.5865C22.7236 11.5961 22.7212 11.6057 22.7212 11.6154C22.7212 11.6346 22.7212 11.6538 22.7115 11.6731C22.7061 11.6785 22.7038 11.6869 22.701 11.6966C22.6989 11.7043 22.6965 11.7127 22.6923 11.7211C22.6875 11.7307 22.6851 11.7404 22.6827 11.75C22.6803 11.7596 22.6779 11.7692 22.6731 11.7788C22.6731 11.7929 22.6679 11.8018 22.6614 11.8131C22.659 11.8173 22.6564 11.8217 22.6538 11.8269L22.625 11.8846C22.6202 11.8942 22.6154 11.9014 22.6106 11.9086C22.6058 11.9158 22.601 11.923 22.5962 11.9327L22.5673 11.9904C22.5481 12.0096 22.5385 12.0192 22.5288 12.0384C22.524 12.0481 22.5192 12.0553 22.5144 12.0625C22.5096 12.0697 22.5048 12.0769 22.5 12.0865C22.4904 12.1009 22.4784 12.113 22.4663 12.125C22.4543 12.137 22.4423 12.149 22.4327 12.1634L19.4519 15.1442C19.2212 15.3654 18.9327 15.4807 18.6346 15.4807C18.3365 15.4807 18.0385 15.3654 17.8173 15.1442Z" fill="#171717"/>
</svg>
