<svg width="34" height="34" viewBox="0 0 34 34" fill="none" xmlns="http://www.w3.org/2000/svg">
<path d="M29.5315 15.912V31.0275H4.50748V15.912H2.17603V32.1932C2.17603 32.8371 2.69785 33.3589 3.34172 33.3589H30.6972C31.3411 33.3589 31.8629 32.8371 31.8629 32.1932V15.912H29.5315Z" fill="#171717"/>
<path d="M32.8343 7.16876H1.1657C0.52182 7.16876 0 7.69058 0 8.33446V15.9505C0 16.5943 0.52182 17.1162 1.1657 17.1162H32.8342C33.4781 17.1162 33.9999 16.5947 33.9999 15.9505V8.33446C34 7.69058 33.4782 7.16876 32.8343 7.16876ZM31.6685 14.7852H2.33146V9.50062H31.6686V14.7852H31.6685Z" fill="#171717"/>
<path d="M18.1471 8.0395C18.0678 7.73722 16.1448 0.641113 10.5303 0.641113C8.08773 0.641113 6.10059 2.62825 6.10059 5.07081C6.10059 7.51336 8.07026 9.5005 10.4914 9.5005H17.0194C17.3804 9.5005 17.7216 9.33303 17.9423 9.04702C18.1629 8.761 18.2384 8.3888 18.1471 8.0395ZM10.4915 7.16911C9.3367 7.16911 8.43204 6.24739 8.43204 5.07081C8.43204 3.93347 9.39301 2.9725 10.5303 2.9725C13.0883 2.9725 14.62 5.49242 15.3564 7.16905H10.4915V7.16911Z" fill="#171717"/>
<path d="M23.5086 0.641113C17.8941 0.641113 15.9711 7.73722 15.8918 8.0395C15.8001 8.3888 15.8758 8.76107 16.0966 9.04708C16.3173 9.33309 16.658 9.50057 17.0194 9.50057H23.5474C25.9686 9.50057 27.9383 7.51343 27.9383 5.07087C27.9383 2.62825 25.9512 0.641113 23.5086 0.641113ZM23.5475 7.16911H18.6779C19.4088 5.49242 20.9359 2.97257 23.509 2.97257C24.6464 2.97257 25.6073 3.93353 25.6073 5.07087C25.6073 6.24739 24.7027 7.16911 23.5475 7.16911Z" fill="#171717"/>
<path d="M18.1851 8.33484H15.8536V32.1931H18.1851V8.33484Z" fill="#171717"/>
</svg>
