<svg width="40" height="28" viewBox="0 0 40 28" fill="none" xmlns="http://www.w3.org/2000/svg">
<path d="M40 0.619812H4.68775V5.30764H0V27.3798H35.3122V22.692H40V0.619812ZM32.9684 10.7764C31.4528 10.3626 30.2572 9.16703 29.8434 7.6514H32.9684V10.7764ZM27.4435 7.6514C27.934 10.4626 30.1571 12.6858 32.9684 13.1763V19.5112C30.1572 20.0017 27.934 22.2249 27.4435 25.0361H7.86862C7.37808 22.225 5.15494 20.0018 2.34376 19.5112V13.1763C5.15494 12.6857 7.37808 10.4626 7.86862 7.6514H27.4435ZM5.46869 7.6514C5.05486 9.16703 3.85939 10.3625 2.34376 10.7764V7.6514H5.46869ZM2.34376 21.9111C3.85939 22.325 5.05486 23.5205 5.46869 25.0362H2.34376V21.9111ZM29.8434 25.0362C30.2572 23.5205 31.4528 22.325 32.9684 21.9111V25.0362H29.8434ZM37.6562 20.3483H35.3122V5.30764H7.03151V2.96357H37.6562V20.3483Z" fill="#171717"/>
<path d="M17.656 21.3714C20.4283 21.3714 22.6837 19.116 22.6837 16.3438C22.6837 13.5715 20.4283 11.316 17.656 11.316C14.8838 11.316 12.6283 13.5715 12.6283 16.3438C12.6283 19.116 14.8838 21.3714 17.656 21.3714ZM17.656 13.6598C19.136 13.6598 20.3399 14.8639 20.3399 16.3438C20.3399 17.8237 19.136 19.0277 17.656 19.0277C16.1761 19.0277 14.972 17.8237 14.972 16.3438C14.972 14.8639 16.1761 13.6598 17.656 13.6598Z" fill="#171717"/>
<path d="M25.514 15.1719H29.349V17.5156H25.514V15.1719Z" fill="#171717"/>
<path d="M5.96307 15.1719H9.79815V17.5156H5.96307V15.1719Z" fill="#171717"/>
</svg>
