<svg width="40" height="40" viewBox="0 0 40 40" fill="none" xmlns="http://www.w3.org/2000/svg">
<g clip-path="url(#clip0)">
<path d="M36.4853 4.68574C29.5832 4.68574 20.6084 0.300018 20.5185 0.25564L20.0001 0L19.4815 0.25564C19.3916 0.299939 10.4168 4.68574 3.51466 4.68574H2.34271V18.9031C2.34271 29.1879 9.67689 38.0431 19.7817 39.9586L20 40L20.2183 39.9586C30.3231 38.043 37.6573 29.1879 37.6573 18.9031V4.68574H36.4853ZM35.3134 18.9031C35.3134 27.9887 28.8866 35.8216 20 37.6131C11.1134 35.8216 4.6866 27.9887 4.6866 18.9031V6.99471C10.9629 6.63039 18.0342 3.52232 20 2.60507C21.9658 3.52232 29.0371 6.63039 35.3134 6.99471V18.9031Z" fill="#051223"/>
<path d="M19.5455 6.64626C18.3894 7.13262 17.2123 7.5885 16.0468 8.00118C13.6104 8.86389 11.2888 9.51682 9.14631 9.94184L8.20242 10.1291V18.9032C8.20242 22.3641 9.38007 25.7732 11.5184 28.5022C13.5771 31.1296 16.4801 33.0573 19.6927 33.93L20 34.0134L20.3073 33.93C23.5199 33.0573 26.4229 31.1296 28.4816 28.5022C30.62 25.7732 31.7976 22.3641 31.7976 18.9032V10.1291L30.8537 9.94184C28.7112 9.51682 26.3895 8.86389 23.9532 8.00118C22.7877 7.58843 21.6106 7.13262 20.4545 6.64626L20.0001 6.45508L19.5455 6.64626ZM16.8292 10.2107C17.4938 9.97536 18.1618 9.72511 18.828 9.46494V18.3096H10.5462V12.0422C12.5293 11.6011 14.638 10.9865 16.8292 10.2107ZM13.3634 27.0567C11.9094 25.2009 10.9788 22.9753 10.6651 20.6535H18.828V31.1686C16.694 30.3026 14.7903 28.8776 13.3634 27.0567ZM26.6366 27.0567C25.2097 28.8777 23.306 30.3027 21.1719 31.1686V20.6535H29.3349C29.0211 22.9753 28.0906 25.2009 26.6366 27.0567ZM29.4537 12.0422V18.3095H21.1719V9.46486C21.8381 9.72503 22.5061 9.97528 23.1708 10.2106C25.3619 10.9865 27.4707 11.6011 29.4537 12.0422Z" fill="#051223"/>
</g>
<defs>
<clipPath id="clip0">
<rect width="40" height="40" fill="white"/>
</clipPath>
</defs>
</svg>
