<svg width="28" height="30" fill="none" xmlns="http://www.w3.org/2000/svg"><path d="M2.168 2.52v12.06a7.238 7.238 0 003.516 6.209v7.452H3.926V30h5.275v-1.758H7.443V20.79a7.238 7.238 0 003.516-6.209V2.52a21.794 21.794 0 002.168-.964L12.307 0c-.033.018-3.351 1.75-5.743 1.75C4.178 1.75.852.019.819 0l-.41.778L.82 0 0 1.556c.073.039.956.5 2.168.964zm4.396 16.748a5.448 5.448 0 01-2.638-4.687V12.36h5.275v2.222c0 1.94-1 3.697-2.637 4.687zM9.2 3.101v7.5H3.926V3.1c.873.239 1.79.408 2.638.408.847 0 1.764-.169 2.637-.408zM14.885 0l-.41.778.41-.778-.82 1.556c.074.039.957.5 2.169.964v12.06a7.238 7.238 0 003.516 6.209v7.452h-1.758V30h5.275v-1.758h-1.758V20.79a7.238 7.238 0 003.516-6.209V2.52a21.78 21.78 0 002.168-.964L26.373 0c-.033.018-3.351 1.75-5.744 1.75-2.385 0-5.71-1.732-5.744-1.75zm5.744 19.268a5.448 5.448 0 01-2.637-4.687V12.36h5.275v2.222c0 1.94-1 3.697-2.638 4.687zm2.638-8.667h-5.275V3.1c.872.239 1.79.408 2.637.408.848 0 1.765-.169 2.638-.408v7.5z" fill="#009BE8"/></svg>