<svg width="30" height="30" fill="none" xmlns="http://www.w3.org/2000/svg"><path fill-rule="evenodd" clip-rule="evenodd" d="M3.461 2.568a.92.92 0 00-.92.92v8.095C2.238 12.426.9 16.354.9 19.95c0 2.44.769 4.315 2.096 5.578 1.326 1.263 3.199 1.905 5.387 1.905 2.015 0 3.465-.296 4.625-.533.763-.156 1.408-.287 1.992-.287.583 0 1.188.125 1.97.286 1.144.238 2.576.534 4.593.534 2.196 0 4.082-.642 5.42-1.904 1.338-1.264 2.117-3.138 2.117-5.579 0-3.59-1.338-7.522-1.64-8.366V3.488a.92.92 0 00-1.841 0v7.7a37.785 37.785 0 00-4.58 2.896c-3.057 2.281-4.824 4.49-5.228 6.585H14.19c-.404-2.095-2.17-4.304-5.229-6.585a37.788 37.788 0 00-4.579-2.896v-7.7a.92.92 0 00-.92-.92zm-.72 17.381c0-2.555.778-5.405 1.244-6.88A35.908 35.908 0 017.86 15.56c1.506 1.123 2.653 2.209 3.423 3.227.77 1.018 1.156 1.961 1.156 2.803 0 1.335-.486 2.327-1.232 2.989-.746.663-1.76 1.002-2.825 1.012-1.063 0-2.474-.185-3.617-.98-1.137-.789-2.024-2.191-2.024-4.662zm19.381-4.376a35.948 35.948 0 013.893-2.503c.466 1.476 1.244 4.327 1.244 6.88 0 2.47-.895 3.872-2.043 4.662-1.153.794-2.578.98-3.65.98-.91-.007-1.912-.282-2.684-.915-.77-.63-1.321-1.623-1.321-3.087 0-.84.384-1.78 1.152-2.797.766-1.016 1.909-2.099 3.41-3.22zm-8.778 9.382c.43-.634.756-1.435.88-2.445h1.55c.124 1.01.448 1.811.874 2.446-.562-.107-1.094-.185-1.648-.185-.553 0-1.088.077-1.656.184z" fill="#009BE8"/></svg>