<svg width="30" height="30" fill="none" xmlns="http://www.w3.org/2000/svg"><path d="M27.944 16.11l-9.87-4.431-3.42-4.96h-3.936V8.73a4.041 4.041 0 01-4.037 4.037h-.844l-1.768-1.89H0v9.252a3.155 3.155 0 003.151 3.151H22.92l4.06-.543a3.493 3.493 0 003.02-3.45 3.487 3.487 0 00-2.056-3.177zM1.758 20.13v-1.646h1.707a9.03 9.03 0 016.76 3.039H3.15a1.395 1.395 0 01-1.393-1.393zm24.989.865l-3.944.528H12.546l-.893-1.038a10.789 10.789 0 00-8.188-3.759H1.758v-4.09h1.548l1.768 1.89H6.68c3.196 0 5.795-2.6 5.795-5.795v-.254h1.254l2.62 3.8-1.456 1.456 1.243 1.243 1.545-1.546 1.52.683-1.186 1.186 1.244 1.243 1.659-1.659 6.305 2.831a1.726 1.726 0 011.018 1.573 1.73 1.73 0 01-1.495 1.708z" fill="#009BE8"/></svg>