<svg width="30" height="30" fill="none" xmlns="http://www.w3.org/2000/svg"><path d="M28.242 20.098L30 17.227l-1.758-2.872L30 11.485l-1.758-2.872L30 5.743 28.242 2.87 30 0H7.91C3.55 0 0 3.549 0 7.91v14.18C0 26.45 3.549 30 7.91 30c4.065 0 7.423-3.082 7.861-7.031H30l-1.758-2.871zM7.91 1.758a6.16 6.16 0 016.152 6.152 6.16 6.16 0 01-6.152 6.152A6.16 6.16 0 011.758 7.91 6.16 6.16 0 017.91 1.758zm0 26.484a6.16 6.16 0 01-6.152-6.152v-9.214a7.898 7.898 0 0012.305 0v9.214a6.16 6.16 0 01-6.153 6.152zm20.03-16.758l-1.758 2.871 1.758 2.872-1.758 2.87.682 1.114H15.82V7.91a7.898 7.898 0 00-2.944-6.153h13.987L26.18 2.87l1.758 2.871-1.758 2.871 1.758 2.871z" fill="#009BE8"/><path d="M7.91 12.305a4.4 4.4 0 004.395-4.395A4.4 4.4 0 007.91 3.516 4.4 4.4 0 003.516 7.91a4.4 4.4 0 004.394 4.395zm0-7.032a2.64 2.64 0 012.637 2.637 2.64 2.64 0 01-2.637 2.637A2.64 2.64 0 015.273 7.91 2.64 2.64 0 017.91 5.273z" fill="#009BE8"/><path d="M8.79 7.91a.879.879 0 11-1.759 0 .879.879 0 011.758 0z" fill="#009BE8"/></svg>