<svg width="30" height="30" fill="none" xmlns="http://www.w3.org/2000/svg"><path d="M13.404 13.011c.251-1.563.511-3.18.511-4.916 0-2.012-.494-3.92-1.39-5.37C11.438.966 9.802 0 7.914 0 3.911 0 1.121 4.354 1.121 8.262c0 9.24 3.13 17.504 4.219 19.338A4.7 4.7 0 009.435 30a4.7 4.7 0 004.256-6.677c-1.263-4.24-.767-7.326-.287-10.312zM9.435 28.242a2.942 2.942 0 01-2.58-1.533C5.978 25.243 2.88 17.233 2.88 8.262c0-3.07 2.154-6.504 5.036-6.504 1.292 0 2.34.636 3.114 1.89.717 1.16 1.128 2.782 1.128 4.447 0 1.595-.237 3.073-.489 4.637-.513 3.197-1.045 6.503.359 11.16.013.045.03.09.05.131a2.94 2.94 0 01-2.643 4.219z" fill="#009BE8"/><path d="M10.25 7.175c-.148-.04-3.641-.955-6.13 1.388a.879.879 0 101.206 1.28c1.76-1.657 4.429-.98 4.465-.97a.88.88 0 00.458-1.698zM9.455 23.3c-.46 0-.9.405-.88.88.022.476.387.879.88.879.46 0 .9-.405.879-.88-.022-.475-.386-.878-.88-.878zm-2.344-3.202c-.46 0-.9.404-.879.879.022.476.386.878.88.878.459 0 .9-.404.878-.878-.021-.477-.386-.88-.879-.88zM22.085 0c-1.887 0-3.524.967-4.61 2.724-.896 1.452-1.39 3.36-1.39 5.371 0 1.736.26 3.353.511 4.916.48 2.986.976 6.073-.287 10.311A4.7 4.7 0 0020.565 30c1.697 0 3.264-.92 4.096-2.4 1.089-1.834 4.218-10.099 4.218-19.338C28.88 4.354 26.09 0 22.085 0zm1.06 26.71a2.942 2.942 0 01-2.58 1.533 2.94 2.94 0 01-2.643-4.22.89.89 0 00.052-.13c1.403-4.658.872-7.964.358-11.16-.252-1.565-.49-3.043-.49-4.638 0-1.665.412-3.286 1.129-4.447.775-1.254 1.822-1.89 3.114-1.89 2.882 0 5.036 3.434 5.036 6.504 0 8.971-3.1 16.98-3.976 18.447z" fill="#009BE8"/><path d="M25.88 8.563c-2.489-2.343-5.982-1.428-6.13-1.388a.879.879 0 00.462 1.696c.026-.007 2.683-.704 4.462.972a.876.876 0 001.242-.038.879.879 0 00-.037-1.242zM20.545 23.3c-.46 0-.9.405-.879.88.022.476.386.879.88.879.459 0 .9-.405.878-.88-.021-.475-.386-.878-.879-.878zm2.344-3.202c-.46 0-.9.404-.879.879.021.476.386.878.879.878.46 0 .9-.404.879-.878-.021-.477-.386-.88-.88-.88z" fill="#009BE8"/></svg>