<svg width="30" height="30" fill="none" xmlns="http://www.w3.org/2000/svg"><path d="M27.363 10.562h-1.816c-2.273 0-3.375-1.098-4.652-2.37C19.538 6.843 18 5.31 15 5.31c-2.998 0-4.55 1.53-5.92 2.88-1.293 1.273-2.41 2.372-4.685 2.372H2.637A2.634 2.634 0 000 13.188v6.128c0 .965.789 1.75 1.758 1.75h5.905c1.989 2.303 4.478 3.502 7.337 3.502s5.344-1.199 7.322-3.502h5.92c.97 0 1.758-.785 1.758-1.75v-6.128a2.634 2.634 0 00-2.637-2.626zM1.758 19.316v-6.128c0-.482.394-.875.879-.875h1.026c.235 1.13.803 3.377 1.954 5.646.242.477.496.93.763 1.357H1.758zM15 22.817c-3.275 0-5.898-1.887-7.795-5.61-.976-1.913-1.506-3.853-1.756-4.962 2.327-.31 3.667-1.63 4.866-2.81C11.608 8.16 12.725 7.06 15 7.06c2.273 0 3.375 1.098 4.652 2.37 1.189 1.184 2.516 2.506 4.845 2.815-.244 1.108-.765 3.05-1.732 4.964-1.88 3.72-4.492 5.607-7.765 5.607zm13.242-3.501h-4.645c.265-.428.518-.881.758-1.36 1.139-2.267 1.696-4.512 1.927-5.643h1.081c.485 0 .88.393.88.875v6.128z" fill="#009BE8"/><path d="M12.363 10.562h5.274v1.751h-5.274v-1.75zm-3.515 3.502h12.304v1.75H8.848v-1.75zm3.515 3.501h5.274v1.75h-5.274v-1.75z" fill="#009BE8"/></svg>