<svg width="30" height="30" fill="none" xmlns="http://www.w3.org/2000/svg"><g clip-path="url(#clip0)"><path d="M5.983 29.957c.179-.02.398-.064.573-.105l6.704-1.59 8.6 1.72c.04.008.112.017.172.017h5.331A2.64 2.64 0 0030 27.362a2.64 2.64 0 00-2.637-2.636H25.83l-9.13-6.522a6.164 6.164 0 01-2.577-5.006V.88a.879.879 0 00-.878-.879H2.639a.879.879 0 00-.879.88v12.49c0 3.435-.505 6.7-1.502 9.706a5.073 5.073 0 00-.255 1.778c.067 3.022 2.961 5.48 5.98 5.102zM1.76 24.813V24.8a3.325 3.325 0 01.167-1.17 31.073 31.073 0 001.328-5.958l4.752 3.11-5.73 5.701a3.271 3.271 0 01-.517-1.671zM12.427 14.18a7.91 7.91 0 00.435 1.773L9.28 19.517l-5.838-3.823c.032-.501.055-1.006.066-1.514h8.919zm.614 12.327l-1.593.378 5.992-5.992 2.651 1.894-4.207 4.207-2.468-.494a.88.88 0 00-.375.007zm11.151-.79l-2.449 2.449-3.787-.758 3.585-3.585 2.651 1.894zm4.05 1.645a.88.88 0 01-.879.879h-3.21l1.758-1.758h1.452a.88.88 0 01.88.88zM15.99 19.858l-7.8 7.8-2.033.482c-.171.038-.246.055-.389.073-.757.096-1.543-.086-2.231-.502l10.166-10.115a7.896 7.896 0 001.974 2.038l.313.224zm-3.625-18.1v10.664H3.518V1.76h8.847z" fill="#009BE8"/></g><defs><clipPath id="clip0"><path fill="#fff" d="M0 0h30v30H0z"/></clipPath></defs></svg>