<svg width="30" height="30" fill="none" xmlns="http://www.w3.org/2000/svg"><g clip-path="url(#clip0)" fill="#009BE8"><path d="M23.848 17.637h1.758v1.758h-1.758v-1.758zM4.395 10.605h1.757v1.758H4.395v-1.758zm0 7.032h1.757v1.758H4.395v-1.758z"/><path d="M29.121 20.822V9.178l.107-.107A2.62 2.62 0 0030 7.207a2.62 2.62 0 00-.772-1.864 2.62 2.62 0 00-1.865-.773 2.62 2.62 0 00-1.837.746 32.687 32.687 0 00-21.052 0 2.619 2.619 0 00-1.837-.746 2.62 2.62 0 00-1.865.773A2.62 2.62 0 000 7.207c0 .704.274 1.366.772 1.864l.107.107v11.644l-.107.106A2.62 2.62 0 000 22.793c0 .704.274 1.366.772 1.864a2.62 2.62 0 001.865.773 2.62 2.62 0 001.837-.746A32.631 32.631 0 0015 26.425c3.56 0 7.12-.58 10.526-1.741a2.619 2.619 0 001.837.746 2.62 2.62 0 001.865-.773A2.62 2.62 0 0030 22.793a2.62 2.62 0 00-.772-1.864l-.107-.107zm-1.136 1.35a.873.873 0 01.257.62.873.873 0 01-.257.622.873.873 0 01-.622.258.873.873 0 01-.621-.258l-.759-.758-.525.189a30.917 30.917 0 01-20.916 0l-.525-.19-.759.76a.873.873 0 01-.621.257.873.873 0 01-.622-.258.873.873 0 01-.257-.621c0-.235.091-.456.257-.622l.622-.621V8.45l-.622-.622a.873.873 0 01-.257-.621c0-.235.091-.455.257-.622a.873.873 0 01.622-.257c.234 0 .455.092.621.258l.759.758.525-.19a30.917 30.917 0 0120.916 0l.525.19.759-.758a.873.873 0 01.621-.258c.235 0 .456.092.622.258a.873.873 0 01.257.621.873.873 0 01-.257.621l-.622.622v13.1l.622.622z"/><path d="M23.848 10.605h1.758v1.758h-1.758v-1.758z"/></g><defs><clipPath id="clip0"><path fill="#fff" d="M0 0h30v30H0z"/></clipPath></defs></svg>