<svg width="30" height="27" fill="none" xmlns="http://www.w3.org/2000/svg"><path fill-rule="evenodd" clip-rule="evenodd" d="M29.967 21.38a2.301 2.301 0 00-.042-.142l-.58-1.773a651.29 651.29 0 01-1.31-4.017c-.484-1.511-1-3.134-1.484-4.763-.323-1.086-.69-2.317-1.395-3.402-.753-1.16-1.684-1.896-2.847-2.25-1.165-.356-2.093-.857-2.836-1.535-.893-.813-1.377-1.719-1.48-2.77-.046-.461-.358-.754-.778-.726-.42.027-.695.356-.684.819.002.083.01.162.017.222.093.777.36 1.51.817 2.242l.088.14c-1.658.544-3.27.544-4.907-.001.085-.135.166-.263.24-.396.453-.822.67-1.55.683-2.293A.72.72 0 0012.763 0a.726.726 0 00-.75.682c-.06.745-.33 1.426-.824 2.081-.76 1.01-1.836 1.729-3.288 2.2-.994.322-1.724.752-2.3 1.354-.77.808-1.345 1.822-1.756 3.102-.248.773-.488 1.562-.72 2.328l-.022.072-.019.062c-.213.703-.433 1.428-.66 2.138-.425 1.337-.87 2.694-1.3 4.005a1205.754 1205.754 0 00-.69 2.111l-.036.108-.012.038c-.118.357-.24.725-.349 1.092a.79.79 0 00.148.754.71.71 0 00.658.226c.446-.077.575-.47.617-.601v-.001c.247-.759.5-1.53.744-2.275.4-1.222.814-2.485 1.212-3.73.531-1.66 1.046-3.342 1.528-4.923.27-.887.528-1.68.942-2.41.565-.993 1.216-1.598 2.049-1.906a42.22 42.22 0 001.298-.511l.002-.001.088-.036.44-.178c.473.96.861 2.008 1.187 3.205.392 1.442.641 2.972.74 4.547a24.52 24.52 0 01-.113 4.194l-.002.012-.002.017h-.018a40.09 40.09 0 00-1.459 0h-.014a.184.184 0 01-.005-.027l-.016-.095-.004-.022a177.6 177.6 0 00-.596-3.372c-.057-.3-.129-.602-.198-.893l-.002-.005c-.178-.745-.346-1.45-.298-2.194.005-.086-.019-.16-.037-.216a.734.734 0 00-.694-.516.71.71 0 00-.522.208.812.812 0 00-.216.6c.005.154.016.309.028.46l.002.028c.024.31.047.605.012.888-.189 1.547-.637 3.081-1.369 4.69a23.022 23.022 0 01-3.358 5.327c-.199.235-.255.482-.168.735a.737.737 0 00.552.505c.273.052.56-.064.766-.31 1.85-2.192 3.258-4.62 4.187-7.214.05-.14.098-.283.145-.427.089.473.18.962.248 1.443.016.12.039.24.061.355v.002c.073.38.14.738-.007 1.084-.034.08-.031.156-.03.212v.003l.002.03-.001.98c-.001 1.098-.003 2.233.008 3.351.002.171.061.33.113.47.024.064.046.124.062.18.012.044.027.086.041.126l.002.005c.02.058.047.134.043.166a34.049 34.049 0 01-.31 1.706c-.095.46.119.853.52.955.2.051.403.023.569-.081a.767.767 0 00.337-.5c.126-.585.227-1.13.31-1.664a.527.527 0 01.018-.087.404.404 0 01.075-.005c2.966.008 6.09.008 9.285 0h.002a.37.37 0 01.085.007.431.431 0 01.021.093c.07.481.167.994.313 1.664.047.216.17.394.346.5a.702.702 0 00.572.069c.387-.113.595-.5.504-.94a53.96 53.96 0 01-.255-1.367l-.062-.345a.441.441 0 01.063-.316c.113-.202.178-.442.18-.66.012-1.399.008-2.78.004-4.31a1.266 1.266 0 00-.042-.282l-.001-.007a1.679 1.679 0 01-.035-.185l-.001-.006a.61.61 0 01-.016-.162c.116-.767.246-1.594.396-2.523l.004.011.014.045c.123.374.25.76.4 1.135a23.59 23.59 0 003.917 6.494c.164.194.362.304.574.32.19.014.372-.05.526-.186.321-.284.333-.722.029-1.09-2.08-2.51-3.477-5.083-4.275-7.867-.276-.964-.535-1.994-.411-3.067.019-.168.024-.348.014-.552a.718.718 0 00-.268-.54.736.736 0 00-.598-.138c-.354.068-.575.344-.606.757-.01.143-.018.29-.025.43v.006c-.018.364-.034.708-.112 1.038-.475 2.025-.775 3.592-.973 5.08a.06.06 0 01-.002.011 47.156 47.156 0 00-1.48.001h-.007l-.001-.01a32.941 32.941 0 00-.048-.574l-.002-.024c-.019-.207-.038-.42-.052-.629-.223-3.377.25-6.601 1.403-9.583.116-.3.247-.592.385-.9l.006-.013.036-.079.068-.152c.02.01.042.019.063.028.142.058.286.12.426.18l.015.007.01.004c.34.146.693.298 1.056.41a3.562 3.562 0 011.717 1.127c.557.659.97 1.456 1.302 2.509.148.47.287.951.423 1.418l.012.04.005.017v.001c.15.517.304 1.05.47 1.571.41 1.286.836 2.587 1.25 3.853l.078.237a1034.055 1034.055 0 01.808 2.474c.23.704.466 1.432.703 2.148.138.418.523.636.916.519.405-.122.602-.505.486-.953zM18.866 5.203c-.12.256-.242.52-.355.785-.677 1.582-1.15 3.274-1.443 5.173-.295 1.903-.353 3.895-.178 6.088.014.176.034.345.059.506a45.898 45.898 0 00-.829-.002 85.015 85.015 0 01-.809 0h-.272c-.654 0-1.329-.002-1.993.004.204-1.729.223-3.483.057-5.214-.273-2.837-.95-5.304-2.067-7.538l.045-.039c.143-.122.279-.238.423-.34.023.003.062.01.1.026.822.328 1.676.54 2.54.629 1.393.143 2.795-.059 4.167-.6.181-.072.222-.05.303.036.1.108.215.196.326.28l.008.006.004.003.004.003-.05.109-.001.001v.001l-.001.001v.001l-.038.081zm-8.837 14.033v-.013h.016c2.716.004 5.477.004 8.147.004h1.728v3.923h-9.887v-1.063c0-.934.001-1.9-.004-2.851zm3.566-8.285a6.16 6.16 0 00.762 0c.17-.01.348-.19.353-.355.01-.28.008-.554.007-.844v-.506h-1.481v.539c-.002.278-.002.542.007.811.005.166.183.345.352.355zm3.166-1.726v.224l.001.275v.045c0 .29.001.567-.007.847-.005.172-.198.328-.352.336a7.373 7.373 0 01-.758-.002c-.17-.012-.35-.197-.357-.367a12.438 12.438 0 010-1c.006-.166.184-.343.352-.351.21-.01.422-.01.646-.008h.475zm-2.88 5.765c-.064 0-.118 0-.164-.002-.16-.002-.285-.004-.385.094-.1.1-.099.227-.097.403v.154c-.002.193-.002.39-.001.582v.486h1.483v-.874c0-.362 0-.562-.144-.705-.142-.142-.337-.14-.69-.138h-.002zm1.765.006c.238-.012.485-.012.756-.001.14.005.345.131.35.316.008.291.008.588.007.876v.517H15.28v-.491c-.001-.305-.002-.593.007-.889.005-.187.22-.322.358-.328zm-1.287-2.877a6.974 6.974 0 00-.759-.001c-.138.006-.351.141-.356.329-.01.295-.008.582-.008.886v.491h1.481v-.508c.001-.29.002-.565-.007-.843-.006-.18-.198-.344-.351-.354zm2.4 1.705H15.28V13.6l-.001-.28v-.004c-.001-.291-.002-.566.008-.845.006-.178.199-.342.353-.352.222-.013.462-.014.757-.002.12.005.35.116.354.31.008.292.008.577.007.877v.52zm-3.057-7.481h-.45v1.716h.44l.214.001c.166 0 .328-.001.493-.007.183-.006.31-.215.314-.35.01-.356.009-.682 0-.995-.006-.155-.159-.35-.33-.357a14.92 14.92 0 00-.68-.008zm1.58 1.708V7.56c-.002-.302-.002-.588.006-.881.006-.189.218-.324.355-.331.251-.013.505-.013.755 0 .137.006.35.142.355.33.01.295.008.596.008.887l-.001.261v.225h-1.478zm-2.277 12.64v.225h1.524v-.436c.001-.241.002-.49-.007-.736-.007-.2-.242-.297-.36-.302-.278-.011-.53-.012-.775-.003-.13.005-.366.112-.374.31-.01.243-.01.49-.008.727v.215zm-2.458.23v-.467c-.002-.23-.003-.447.007-.665.009-.178.205-.34.36-.347a6.61 6.61 0 01.804.006c.177.013.342.213.353.368.017.232.017.482.001.744-.01.153-.17.347-.346.355-.155.007-.31.009-.47.009l-.229-.001h-.005l-.252-.001h-.223zm.717.538c-.299 0-.463 0-.59.126-.128.128-.128.302-.128.59 0 .325 0 .503.133.637.134.134.311.134.634.134h.137c.245 0 .396-.003.512-.122.117-.12.117-.28.117-.543 0-.349 0-.541-.139-.681-.14-.141-.33-.141-.676-.141zm1.74 1.487v-.225l-.002-.238c0-.23-.002-.449.007-.669.007-.163.178-.338.339-.346a7.53 7.53 0 01.824 0c.177.01.342.211.353.368a5.83 5.83 0 010 .743c-.01.156-.17.352-.342.36a10.354 10.354 0 01-.7.008h-.006l-.25-.001h-.224zm2.445-2.257v.224h1.515v-.224l.001-.234c.002-.23.003-.448-.006-.67-.007-.163-.179-.337-.34-.344a9.631 9.631 0 00-.82 0c-.15.007-.337.153-.343.325a17.64 17.64 0 00-.007.704v.219zm2.446.214v-.456c-.002-.228-.003-.443.005-.663.005-.15.155-.336.323-.342.239-.008.472-.007.719-.006h.455v1.467h-1.502zm-1.284.565a8.65 8.65 0 00-.799-.003c-.14.005-.348.129-.355.31-.009.244-.008.488-.007.725v.434h1.515v-.465c.002-.222.003-.432-.007-.645-.008-.168-.183-.347-.347-.356zm1.656-.003c.28-.013.535-.012.78.001.154.009.35.169.358.343.01.22.01.437.008.666v.461h-1.516v-.444c-.002-.232-.003-.47.007-.705.008-.184.224-.316.363-.322z" fill="#009BE8"/></svg>