<svg width="30" height="30" fill="none" xmlns="http://www.w3.org/2000/svg"><g clip-path="url(#clip0)" fill="#009BE8"><path d="M28.352 12.784a13.425 13.425 0 00-.68-2.54c1.368-2.025.22-4.012-2.22-3.84a13.58 13.58 0 00-1.856-1.856c.174-2.437-1.813-3.588-3.839-2.22a13.436 13.436 0 00-2.54-.68c-1.069-2.197-3.365-2.196-4.434 0-.867.144-1.718.371-2.54.68C8.219.961 6.23 2.11 6.404 4.548a13.58 13.58 0 00-1.856 1.857C2.11 6.232.959 8.218 2.328 10.243a13.436 13.436 0 00-.68 2.54c-2.197 1.07-2.197 3.366 0 4.435.143.867.37 1.718.68 2.54-1.368 2.024-.219 4.012 2.22 3.838.557.678 1.179 1.3 1.856 1.857-.173 2.437 1.813 3.588 3.839 2.22.822.309 1.673.537 2.54.68 1.07 2.197 3.365 2.197 4.434 0a13.432 13.432 0 002.54-.68c2.024 1.367 4.013.22 3.839-2.22a13.58 13.58 0 001.857-1.857c2.437.174 3.588-1.812 2.22-3.838.309-.822.536-1.673.68-2.54 2.196-1.07 2.196-3.365 0-4.434zm-1.089 2.986a.879.879 0 00-.58.72 11.672 11.672 0 01-.82 3.064.879.879 0 00.143.913c.493.576.545 1.005.46 1.153-.086.148-.485.318-1.232.178a.879.879 0 00-.861.331c-.644.846-1.399 1.6-2.244 2.244a.879.879 0 00-.331.862c.14.747-.03 1.146-.178 1.231-.149.086-.578.034-1.154-.46a.879.879 0 00-.912-.143 11.68 11.68 0 01-3.065.82.878.878 0 00-.72.58c-.252.717-.598.977-.77.977-.17 0-.516-.26-.768-.976a.879.879 0 00-.72-.581 11.678 11.678 0 01-3.064-.82.879.879 0 00-.913.143c-.576.494-1.005.546-1.153.46-.149-.085-.319-.484-.178-1.231a.879.879 0 00-.332-.862 11.813 11.813 0 01-2.243-2.244.879.879 0 00-.862-.33c-.747.14-1.146-.03-1.232-.179-.085-.148-.033-.577.46-1.153a.879.879 0 00.144-.913 11.673 11.673 0 01-.82-3.065.879.879 0 00-.58-.72c-.717-.25-.977-.597-.977-.769 0-.17.26-.517.976-.768a.879.879 0 00.58-.72c.134-1.055.41-2.086.82-3.065a.879.879 0 00-.142-.913c-.494-.575-.546-1.005-.46-1.153.085-.148.484-.318 1.23-.178a.879.879 0 00.862-.331c.644-.845 1.399-1.6 2.244-2.244a.879.879 0 00.332-.862c-.14-.747.03-1.145.178-1.231.148-.086.577-.034 1.153.46a.879.879 0 00.912.143c.979-.41 2.01-.687 3.066-.82a.879.879 0 00.719-.58c.252-.717.598-.977.77-.977.17 0 .517.26.768.977.11.314.39.539.72.58 1.055.133 2.086.41 3.065.82.306.13.66.074.912-.143.576-.494 1.005-.546 1.153-.46.149.086.319.484.178 1.231a.879.879 0 00.332.862c.845.644 1.6 1.398 2.244 2.244a.88.88 0 00.861.331c.747-.14 1.146.03 1.232.178.085.148.033.578-.46 1.153a.879.879 0 00-.144.913c.412.979.688 2.01.82 3.065.042.33.267.61.581.72.716.251.977.598.977.77 0 .17-.26.516-.977.768z"/><path d="M13.135 7.849a.879.879 0 001.142-.49c.234-.587.539-.854.723-.854.184 0 .489.267.723.853a.879.879 0 101.632-.651c-1.042-2.611-3.667-2.615-4.71 0a.88.88 0 00.49 1.142zm-1.09 7.874c-.586-.234-.853-.539-.853-.723 0-.184.267-.49.853-.723a.879.879 0 00-.651-1.632c-2.611 1.042-2.615 3.667 0 4.71a.879.879 0 00.651-1.632zm6.561-3.078a.879.879 0 00-.651 1.632c.586.234.853.539.853.723 0 .184-.267.49-.853.723a.879.879 0 00.651 1.632c2.611-1.042 2.615-3.667 0-4.71zm-11.275.583c.724 0 1.147-.842.69-1.423-.39-.495-.47-.893-.378-1.052.093-.16.476-.29 1.1-.2a.878.878 0 10.253-1.74c-2.782-.403-4.099 1.869-2.356 4.08.174.22.431.335.691.335zm1.412 6.219c-.624.09-1.007-.04-1.1-.2-.092-.16-.013-.557.378-1.052a.879.879 0 10-1.38-1.088c-1.752 2.221-.413 4.48 2.354 4.08a.879.879 0 10-.252-1.74zm8.122 2.704a.879.879 0 00-1.142.49c-.234.587-.539.854-.723.854-.184 0-.489-.267-.723-.853a.879.879 0 00-1.632.651c1.042 2.611 3.667 2.614 4.71 0a.879.879 0 00-.49-1.142zm5.26-5.191a.879.879 0 00-.146 1.235c.39.495.47.892.378 1.052-.093.16-.476.29-1.1.2a.879.879 0 10-.253 1.74c2.764.4 4.109-1.856 2.356-4.08a.879.879 0 00-1.235-.146zm-.868-6.407c.624-.09 1.007.04 1.1.2.091.16.013.557-.378 1.052-.457.58-.035 1.423.69 1.423.26 0 .517-.115.69-.335 1.741-2.208.43-4.483-2.355-4.08a.879.879 0 00.253 1.74z"/></g><defs><clipPath id="clip0"><path fill="#fff" d="M0 0h30v30H0z"/></clipPath></defs></svg>