<svg width="28" height="28" fill="none" xmlns="http://www.w3.org/2000/svg"><path d="M28 10.664C28 4.784 23.216 0 17.336 0H3.28v1.64H0v13.126h3.281v1.64h8.313v8.313h1.64V28H26.36v-3.281H28V10.664zm-1.682-.862a9.038 9.038 0 01-8.12-8.12 9.038 9.038 0 018.12 8.12zM4.922 4.922h2.46v5.332a1.231 1.231 0 01-2.46 0V4.922zm2.46-3.281v1.64h-2.46v-1.64h2.46zm-5.74 11.484V3.281h1.64v9.844h-1.64zm3.28-.277a2.855 2.855 0 002.462 0v1.918H4.922v-1.918zm4.102 1.918V1.64h7.524c.4 5.227 4.585 9.412 9.812 9.812v7.524H13.234v-4.211h-4.21zm14.055 7.082c0 .678-.552 1.23-1.23 1.23h-5.332v-2.46h5.332c.678 0 1.23.551 1.23 1.23zm-9.844-1.23h1.641v2.46h-1.64v-2.46zm11.485 5.741h-9.844v-1.64h9.844v1.64zm-.278-3.28a2.855 2.855 0 000-2.462h1.918v2.461h-1.918z" fill="#009BE8"/></svg>