<svg width="30" height="30" viewBox="0 0 30 30" fill="none" xmlns="http://www.w3.org/2000/svg">
<path d="M27.3633 10.5624C26.6958 10.5624 26.214 10.5624 25.5469 10.5624C23.2742 10.5624 22.1716 9.46423 20.8949 8.19272C19.5383 6.84167 18.0008 5.31036 15 5.31036C12.0021 5.31036 10.4493 6.83986 9.07922 8.18934C7.78652 9.46265 6.67002 10.5624 4.39453 10.5624C3.77461 10.5624 3.26842 10.5624 2.63672 10.5624C1.18283 10.5624 0 11.7404 0 13.1884V19.3157C0 20.281 0.788555 21.0664 1.75781 21.0664H7.66336C9.65162 23.3691 12.1414 24.5677 15 24.5677C17.859 24.5677 20.3436 23.3691 22.3215 21.0664H28.2422C29.2114 21.0664 30 20.281 30 19.3157V13.1884C30 11.7404 28.8172 10.5624 27.3633 10.5624ZM1.75781 19.3157V13.1884C1.75781 12.7057 2.15209 12.313 2.63672 12.313H3.66328C3.89848 13.443 4.46637 15.6896 5.6168 17.9595C5.85855 18.4365 6.1132 18.8886 6.38016 19.3157H1.75781ZM15 22.817C11.7251 22.817 9.1023 20.9296 7.20451 17.207C6.22916 15.2939 5.69859 13.3543 5.44881 12.2453C7.77615 11.9352 9.11572 10.6156 10.3153 9.43406C11.608 8.16074 12.7245 7.06103 15 7.06103C17.2727 7.06103 18.3752 8.15917 19.652 9.43067C20.8406 10.6145 22.1681 11.9367 24.4972 12.2459C24.2531 13.3544 23.7318 15.2957 22.7648 17.2101C20.8858 20.9306 18.2733 22.817 15 22.817ZM28.2422 19.3157H23.5968C23.8623 18.8877 24.1154 18.4346 24.3554 17.9565C25.4938 15.6889 26.0512 13.4444 26.2815 12.313H27.3633C27.8479 12.313 28.2422 12.7057 28.2422 13.1884V19.3157Z" fill="#009BE8"/>
<path d="M12.3633 10.5624H17.6367V12.313H12.3633V10.5624Z" fill="#009BE8"/>
<path d="M8.84766 14.0637H21.1523V15.8144H8.84766V14.0637Z" fill="#009BE8"/>
<path d="M12.3633 17.565H17.6367V19.3157H12.3633V17.565Z" fill="#009BE8"/>
</svg>
