<svg width="30" height="30" viewBox="0 0 30 30" fill="none" xmlns="http://www.w3.org/2000/svg">
<g clip-path="url(#clip0)">
<path d="M23.8477 17.6367H25.6055V19.3945H23.8477V17.6367Z" fill="#009BE8"/>
<path d="M4.39453 10.6054H6.15234V12.3632H4.39453V10.6054Z" fill="#009BE8"/>
<path d="M4.39453 17.6367H6.15234V19.3945H4.39453V17.6367Z" fill="#009BE8"/>
<path d="M29.1211 20.8219V9.17806L29.2277 9.07141C29.7257 8.57343 30 7.91126 30 7.20696C30 6.50266 29.7257 5.84055 29.2277 5.34257C28.7297 4.84452 28.0676 4.57024 27.3633 4.57024C26.6716 4.57024 26.0206 4.83479 25.5258 5.31596C18.7159 2.99448 11.2841 2.99442 4.47422 5.31596C3.97934 4.83473 3.32842 4.57024 2.63672 4.57024C1.93236 4.57024 1.27025 4.84452 0.772324 5.34251C0.274336 5.84055 0 6.50266 0 7.20696C0 7.91126 0.274277 8.57343 0.772324 9.07141L0.878906 9.17806V20.8219L0.772324 20.9284C0.274336 21.4265 0 22.0886 0 22.7929C0 23.4972 0.274277 24.1594 0.772266 24.6573C1.27025 25.1553 1.93242 25.4296 2.63672 25.4296C3.32842 25.4296 3.97939 25.1651 4.47416 24.6839C7.8791 25.8447 11.4396 26.4251 14.9999 26.4251C18.5603 26.4251 22.1208 25.8447 25.5258 24.6839C26.0206 25.1651 26.6717 25.4296 27.3633 25.4296C28.0676 25.4296 28.7297 25.1553 29.2277 24.6574C29.7257 24.1594 30 23.4972 30 22.7929C30 22.0886 29.7257 21.4265 29.2277 20.9285L29.1211 20.8219ZM27.9847 22.1715C28.1507 22.3375 28.2422 22.5582 28.2422 22.7929C28.2422 23.0277 28.1507 23.2483 27.9847 23.4144C27.8187 23.5804 27.598 23.6718 27.3633 23.6718C27.1286 23.6718 26.9078 23.5804 26.7418 23.4143L25.9832 22.6558L25.4583 22.8449C18.7143 25.275 11.2859 25.2751 4.54166 22.8449L4.01672 22.6558L3.25816 23.4144C3.09223 23.5804 2.8715 23.6718 2.63678 23.6718C2.40205 23.6718 2.18133 23.5804 2.01533 23.4144C1.84934 23.2484 1.75787 23.0277 1.75787 22.7929C1.75787 22.5582 1.84934 22.3375 2.01539 22.1714L2.63672 21.55V8.44991L2.01527 7.82846C1.84928 7.66247 1.75781 7.44175 1.75781 7.20696C1.75781 6.97223 1.84928 6.75151 2.01533 6.58546C2.18127 6.41946 2.40199 6.32805 2.63672 6.32805C2.87145 6.32805 3.09217 6.41952 3.25816 6.58552L4.01672 7.34407L4.5416 7.15493C11.2858 4.72475 18.7142 4.72481 25.4583 7.15493L25.9831 7.34407L26.7418 6.58552C26.9078 6.41952 27.1286 6.32805 27.3632 6.32805C27.598 6.32805 27.8187 6.41952 27.9847 6.58552C28.1507 6.75151 28.2421 6.97223 28.2421 7.20696C28.2421 7.44175 28.1507 7.66241 27.9847 7.82846L27.3633 8.44991V21.55L27.9847 22.1715Z" fill="#009BE8"/>
<path d="M23.8477 10.6054H25.6055V12.3632H23.8477V10.6054Z" fill="#009BE8"/>
</g>
<defs>
<clipPath id="clip0">
<rect width="30" height="30" fill="white"/>
</clipPath>
</defs>
</svg>
