<svg width="30" height="30" viewBox="0 0 30 30" fill="none" xmlns="http://www.w3.org/2000/svg">
<g clip-path="url(#clip0)">
<path d="M28.3521 12.7838C28.2091 11.9163 27.9815 11.0654 27.6725 10.2434C29.0398 8.21921 27.8919 6.23156 25.4526 6.40491C24.8952 5.72755 24.2732 5.10556 23.5959 4.54819C23.7695 2.11114 21.7829 0.960009 19.7574 2.32831C18.9354 2.01939 18.0845 1.79179 17.217 1.64873C16.1481 -0.548834 13.8522 -0.548365 12.7833 1.64873C11.9157 1.79179 11.0648 2.01939 10.2429 2.32831C8.21868 0.961005 6.23062 2.10932 6.40438 4.54819C5.72703 5.10562 5.10503 5.72755 4.54766 6.40491C2.11084 6.23173 0.959245 8.21757 2.32772 10.2434C2.0188 11.0654 1.7912 11.9163 1.64814 12.7838C-0.549422 13.8529 -0.549012 16.1486 1.64814 17.2175C1.79114 18.0851 2.01875 18.9359 2.32772 19.7579C0.960241 21.7825 2.1092 23.77 4.54766 23.5964C5.10509 24.2738 5.72703 24.8957 6.40438 25.4531C6.23079 27.8902 8.21733 29.0413 10.2429 27.6731C11.0649 27.982 11.9157 28.2096 12.7832 28.3526C13.8522 30.5502 16.1481 30.5497 17.217 28.3526C18.0845 28.2096 18.9354 27.982 19.7574 27.6731C21.7815 29.0402 23.7696 27.8922 23.5959 25.4531C24.2732 24.8957 24.8952 24.2738 25.4526 23.5964C27.89 23.7695 29.0411 21.7838 27.6725 19.7579C27.9815 18.9359 28.209 18.085 28.3521 17.2175C30.5493 16.1487 30.5495 13.8529 28.3521 12.7838ZM27.263 15.7697C26.9487 15.8801 26.7239 16.1586 26.6823 16.4891C26.5495 17.5444 26.2736 18.5757 25.8623 19.5543C25.7334 19.8611 25.7889 20.2144 26.0055 20.4669C26.4994 21.0426 26.5514 21.4719 26.4658 21.62C26.38 21.7685 25.9813 21.9384 25.2343 21.798C24.9073 21.7366 24.5741 21.8649 24.3727 22.1294C23.7292 22.9747 22.9743 23.7296 22.1289 24.3732C21.8643 24.5746 21.7361 24.9081 21.7976 25.2349C21.938 25.9818 21.7681 26.3806 21.6196 26.4663C21.4714 26.552 21.0421 26.4999 20.4664 26.0061C20.2139 25.7893 19.8604 25.734 19.5538 25.8629C18.5752 26.2741 17.5439 26.55 16.4886 26.6829C16.1581 26.7245 15.8795 26.9492 15.7692 27.2636C15.5175 27.9801 15.171 28.2402 14.9995 28.2402C14.8285 28.2402 14.4827 27.9801 14.231 27.2636C14.1207 26.9493 13.8421 26.7245 13.5117 26.6829C12.4563 26.55 11.425 26.2741 10.4465 25.8629C10.139 25.7338 9.78587 25.7899 9.53384 26.0061C8.95831 26.4999 8.52883 26.552 8.38073 26.4664C8.23221 26.3806 8.0622 25.9818 8.20269 25.2349C8.26414 24.9081 8.1359 24.5746 7.87139 24.3733C7.02596 23.7297 6.2711 22.9748 5.62755 22.1294C5.42608 21.8648 5.09244 21.7366 4.76595 21.7981C4.01894 21.9385 3.62021 21.7686 3.53444 21.6201C3.44885 21.472 3.50087 21.0426 3.99468 20.467C4.21133 20.2144 4.26681 19.8611 4.13786 19.5544C3.72654 18.5757 3.45073 17.5445 3.31791 16.4891C3.27632 16.1586 3.05147 15.8801 2.73723 15.7698C2.02074 15.5181 1.76056 15.1716 1.76056 15.0001C1.76062 14.8291 2.02068 14.4833 2.73723 14.2316C3.05147 14.1212 3.27632 13.8427 3.31791 13.5123C3.45073 12.4569 3.7266 11.4256 4.13786 10.447C4.26675 10.1403 4.21133 9.78693 3.99468 9.53437C3.50076 8.95872 3.44879 8.52941 3.53438 8.38131C3.62009 8.2328 4.01876 8.06279 4.76589 8.20327C5.09291 8.26473 5.42608 8.13643 5.62749 7.87192C6.27098 7.02661 7.0259 6.27169 7.87133 5.62808C8.1359 5.42666 8.26414 5.0932 8.20263 4.76642C8.0622 4.01947 8.2321 3.6208 8.38061 3.53497C8.52883 3.44944 8.95813 3.5014 9.53378 3.99521C9.78634 4.21192 10.1397 4.2674 10.4464 4.13839C11.4249 3.72713 12.4563 3.45125 13.5116 3.31839C13.8421 3.27679 14.1207 3.052 14.231 2.7377C14.4826 2.02115 14.8292 1.76103 15.0007 1.76109C15.1717 1.76109 15.5175 2.02115 15.7692 2.7377C15.8795 3.05194 16.1581 3.27679 16.4885 3.31839C17.5439 3.45125 18.5752 3.72713 19.5537 4.13839C19.8605 4.26734 20.2139 4.2118 20.4664 3.99521C21.0421 3.50129 21.4715 3.44944 21.6195 3.53485C21.768 3.62062 21.938 4.01941 21.7975 4.76636C21.7361 5.09314 21.8643 5.42661 22.1288 5.62796C22.9742 6.27151 23.7291 7.02649 24.3726 7.8718C24.5741 8.13631 24.9076 8.26455 25.2342 8.20316C25.9814 8.06267 26.38 8.23263 26.4658 8.38114C26.5513 8.5293 26.4993 8.95866 26.0055 9.53431C25.7889 9.78687 25.7334 10.1402 25.8623 10.4469C26.2737 11.4256 26.5495 12.4569 26.6823 13.5122C26.7239 13.8427 26.9487 14.1212 27.263 14.2316C27.9795 14.4832 28.2396 14.8296 28.2396 15.0012C28.2396 15.1722 27.9795 15.518 27.263 15.7697Z" fill="#009BE8"/>
<path d="M13.1353 7.84864C13.5866 8.02873 14.0975 7.80839 14.2772 7.35811C14.511 6.77227 14.8155 6.50542 14.9996 6.50542C15.184 6.50542 15.489 6.77227 15.7228 7.35811C15.9026 7.8088 16.4138 8.02856 16.8647 7.84864C17.3155 7.66879 17.535 7.15758 17.3552 6.70677C16.3133 4.09572 13.688 4.09244 12.6449 6.70677C12.465 7.15758 12.6845 7.66879 13.1353 7.84864Z" fill="#009BE8"/>
<path d="M12.045 15.7228C11.4591 15.489 11.1922 15.1845 11.1922 15.0003C11.1922 14.8159 11.4591 14.5109 12.045 14.2771C12.4957 14.0973 12.7153 13.5861 12.5354 13.1352C12.3556 12.6844 11.8445 12.4649 11.3936 12.6447C8.78253 13.6866 8.77931 16.3119 11.3936 17.3551C11.8462 17.5356 12.3563 17.3136 12.5354 16.8646C12.7154 16.4139 12.4958 15.9027 12.045 15.7228Z" fill="#009BE8"/>
<path d="M18.6064 12.6448C18.1554 12.465 17.6443 12.6846 17.4645 13.1353C17.2847 13.5861 17.5043 14.0973 17.955 14.2772C18.5409 14.511 18.8078 14.8155 18.8078 14.9996C18.8078 15.1841 18.5409 15.4891 17.955 15.7229C17.5043 15.9027 17.2847 16.4139 17.4645 16.8647C17.6445 17.3156 18.1557 17.5351 18.6064 17.3553C21.2175 16.3133 21.2207 13.688 18.6064 12.6448Z" fill="#009BE8"/>
<path d="M7.33102 13.2278C8.05472 13.2278 8.47816 12.3856 8.02062 11.805C7.63015 11.3096 7.5513 10.9125 7.64339 10.753C7.73561 10.5933 8.11892 10.4626 8.74343 10.553C9.22389 10.6229 9.6696 10.2897 9.73914 9.80942C9.80874 9.32915 9.4758 8.88332 8.99552 8.81372C6.21423 8.41031 4.89736 10.6818 6.64037 12.893C6.81366 13.1131 7.07102 13.2278 7.33102 13.2278Z" fill="#009BE8"/>
<path d="M8.74339 19.4468C8.11912 19.5373 7.73568 19.4069 7.6437 19.2475C7.55149 19.0878 7.63005 18.6902 8.02058 18.1948C8.321 17.8137 8.25562 17.2611 7.87447 16.9607C7.49338 16.6603 6.94075 16.7257 6.64033 17.1069C4.88936 19.3282 6.22848 21.5874 8.99548 21.1862C9.47576 21.1166 9.80875 20.6708 9.7391 20.1905C9.6695 19.7102 9.22302 19.3771 8.74339 19.4468Z" fill="#009BE8"/>
<path d="M16.8647 22.1513C16.4137 21.9713 15.9026 22.1911 15.7228 22.6418C15.4891 23.2277 15.1845 23.4945 15.0004 23.4945C14.816 23.4945 14.511 23.2277 14.2772 22.6418C14.0973 22.1911 13.5862 21.9714 13.1353 22.1513C12.6846 22.3312 12.465 22.8424 12.6448 23.2932C13.6867 25.9042 16.3121 25.9075 17.3552 23.2932C17.535 22.8424 17.3154 22.3312 16.8647 22.1513Z" fill="#009BE8"/>
<path d="M22.1255 16.9608C21.7444 17.2612 21.679 17.8138 21.9794 18.1949C22.3699 18.6904 22.4487 19.0875 22.3566 19.2469C22.2644 19.4067 21.881 19.5373 21.2566 19.4469C20.7762 19.3772 20.3304 19.7103 20.2609 20.1906C20.1913 20.6708 20.5242 21.1167 21.0045 21.1863C23.7678 21.5869 25.1126 19.3308 23.3597 17.107C23.0593 16.7257 22.5067 16.6603 22.1255 16.9608Z" fill="#009BE8"/>
<path d="M21.2566 10.5531C21.8806 10.4626 22.2642 10.593 22.3563 10.7524C22.4485 10.9122 22.3699 11.3097 21.9794 11.8051C21.5222 12.3851 21.9443 13.2279 22.669 13.2279C22.9289 13.2279 23.1863 13.1131 23.3597 12.8931C25.1002 10.685 23.7898 8.40979 21.0045 8.81379C20.5243 8.88338 20.1913 9.32915 20.2609 9.80949C20.3304 10.2898 20.7765 10.6229 21.2566 10.5531Z" fill="#009BE8"/>
</g>
<defs>
<clipPath id="clip0">
<rect width="30" height="30" fill="white"/>
</clipPath>
</defs>
</svg>
