<svg width="30" height="27" viewBox="0 0 30 27" fill="none" xmlns="http://www.w3.org/2000/svg">
<path fill-rule="evenodd" clip-rule="evenodd" d="M29.9672 21.3808C29.9551 21.3346 29.9417 21.2879 29.9252 21.2381C29.732 20.6467 29.5382 20.0558 29.3441 19.4648C28.9124 18.1493 28.4661 16.7884 28.0358 15.4477C27.551 13.9369 27.0355 12.3144 26.5507 10.6852C26.2275 9.59892 25.8611 8.3677 25.1563 7.28275C24.4032 6.12332 23.4717 5.38746 22.3089 5.03255C21.1443 4.67718 20.2163 4.17554 19.4727 3.49801C18.5799 2.68542 18.0961 1.77905 17.993 0.728209C17.9474 0.266501 17.6354 -0.0255998 17.2145 0.00177067C16.7949 0.0286924 16.5204 0.358035 16.5307 0.82064C16.5325 0.903649 16.541 0.983068 16.5481 1.04319C16.6405 1.82033 16.9074 2.5535 17.3649 3.28533L17.4529 3.42487C15.7946 3.96914 14.1837 3.96869 12.546 3.42352C12.6308 3.28936 12.7116 3.16149 12.7852 3.02822C13.2392 2.20621 13.4566 1.47753 13.4686 0.734939C13.4749 0.3356 13.1651 0.0129881 12.7634 0.000424579C12.3692 -0.0116902 12.046 0.280859 12.0135 0.681993C11.9528 1.42683 11.6832 2.10795 11.189 2.76349C10.4289 3.77261 9.35312 4.49187 7.90065 4.96255C6.90703 5.28471 6.17678 5.71501 5.60186 6.31716C4.83054 7.12526 4.25607 8.13931 3.84541 9.41855C3.59696 10.1921 3.35733 10.9813 3.12488 11.7469L3.12484 11.747L3.12484 11.747L3.12484 11.7471L3.12483 11.7471L3.12483 11.7471L3.12483 11.7471L3.12482 11.7471L3.10311 11.8186L3.0841 11.8813L3.08408 11.8813L3.08408 11.8813L3.08407 11.8813L3.08407 11.8814C2.87084 12.5842 2.65089 13.3092 2.42463 14.019C1.9988 15.3561 1.55422 16.713 1.12437 18.0245C0.929304 18.6199 0.734242 19.2154 0.540073 19.8112C0.504929 19.9192 0.469283 20.0272 0.433699 20.135L0.398128 20.2429L0.385699 20.2805C0.267707 20.6376 0.146114 21.0056 0.0370184 21.3727C-0.0446666 21.6468 0.0106828 21.9291 0.184765 22.127C0.347243 22.3114 0.59319 22.3957 0.843155 22.3531C1.28862 22.2765 1.41755 21.8822 1.46022 21.7517L1.46048 21.7509C1.70687 20.9922 1.95952 20.2209 2.20368 19.4756C2.60407 18.2538 3.01785 16.9907 3.41645 15.7452C3.94718 14.0863 4.46184 12.4042 4.94392 10.8234C5.21442 9.93589 5.47197 9.14215 5.8862 8.41392C6.4513 7.4205 7.1021 6.81477 7.93502 6.50696C8.37208 6.34573 8.80958 6.16797 9.23289 5.99597L9.23303 5.99591L9.23528 5.995L9.3229 5.95944C9.46968 5.89986 9.61673 5.84017 9.76378 5.78142C10.236 6.74118 10.6244 7.78933 10.9498 8.986C11.3421 10.4277 11.5912 11.9577 11.6894 13.5331C11.7733 14.876 11.7363 16.2477 11.5769 17.727L11.5754 17.7394L11.5729 17.7562H11.555C11.1314 17.7472 10.6677 17.7468 10.0963 17.7553H10.0816C10.0798 17.7486 10.078 17.7401 10.0767 17.7293L10.0606 17.6342L10.0568 17.6116L10.0568 17.6115C9.8687 16.5049 9.67439 15.3615 9.46114 14.2398C9.40401 13.9392 9.33214 13.6381 9.26251 13.3473L9.26135 13.3425C9.08323 12.5972 8.91489 11.8928 8.963 11.1478C8.96835 11.0621 8.94426 10.9877 8.92641 10.9325L8.92639 10.9324C8.82552 10.6233 8.55279 10.4205 8.23185 10.4164C8.03054 10.4133 7.84396 10.4878 7.71005 10.6242C7.56453 10.7727 7.4882 10.9854 7.49445 11.2232C7.49866 11.3779 7.51039 11.533 7.5218 11.6839L7.52181 11.6839L7.52181 11.684L7.52391 11.7118C7.54802 12.0228 7.57078 12.3167 7.53641 12.6002C7.34715 14.1473 6.89945 15.681 6.16741 17.2891C5.28137 19.2356 4.15117 21.0281 2.8085 22.6169C2.61032 22.8516 2.55408 23.0988 2.64112 23.3523C2.73307 23.6207 2.93974 23.8091 3.19327 23.8571C3.466 23.9087 3.75257 23.793 3.95923 23.5475C5.80853 21.3547 7.21726 18.9273 8.1457 16.3329C8.19614 16.1921 8.2439 16.0503 8.29122 15.9058C8.38004 16.3787 8.47155 16.8678 8.5385 17.3492C8.55502 17.469 8.57778 17.5884 8.6001 17.7042L8.60046 17.7061C8.67264 18.0854 8.74091 18.4442 8.59296 18.7896C8.55861 18.8697 8.56163 18.9459 8.56386 19.0022L8.56395 19.0045C8.56439 19.0143 8.56484 19.0247 8.56484 19.0341C8.56484 19.3607 8.56439 19.6878 8.56395 20.0145C8.56261 21.1129 8.56127 22.2485 8.57243 23.3662C8.57421 23.5372 8.63313 23.696 8.68536 23.8365C8.70901 23.8997 8.73133 23.9599 8.7474 24.0169C8.75945 24.0604 8.77418 24.1021 8.78847 24.142L8.7901 24.1467C8.81047 24.2045 8.83744 24.2811 8.83266 24.3125C8.74919 24.8555 8.64474 25.4298 8.52288 26.0194C8.4278 26.4788 8.64161 26.8719 9.04379 26.9742C9.24376 27.0254 9.44552 26.9966 9.61157 26.893C9.78252 26.7867 9.9026 26.609 9.94902 26.3927C10.0749 25.8076 10.1762 25.2638 10.2584 24.7294C10.2659 24.6805 10.2731 24.6549 10.2775 24.6419C10.2896 24.6396 10.3128 24.6365 10.3516 24.6365C13.3182 24.6446 16.4423 24.645 19.6369 24.6374H19.6392C19.6874 24.6374 19.7124 24.641 19.7244 24.6441C19.7293 24.6562 19.7374 24.6827 19.7454 24.7366C19.8155 25.218 19.9119 25.7313 20.0579 26.4008C20.1052 26.6175 20.2279 26.7947 20.4042 26.9002C20.5145 26.9661 20.6386 26.9998 20.7658 26.9998C20.835 26.9998 20.9055 26.9899 20.9756 26.9697C21.363 26.8571 21.5706 26.4708 21.4804 26.0302C21.3876 25.577 21.3046 25.1126 21.2247 24.6634C21.2041 24.5481 21.1836 24.4332 21.1626 24.3179C21.143 24.2093 21.1613 24.1174 21.226 24.0016C21.3385 23.8001 21.4041 23.5601 21.4059 23.3425C21.4175 21.9434 21.4144 20.5628 21.4095 19.0327C21.409 18.93 21.3876 18.8344 21.3684 18.7501L21.3669 18.7434C21.3576 18.7024 21.3489 18.6638 21.3434 18.6276C21.3401 18.6045 21.3361 18.5814 21.332 18.5579L21.3309 18.5517C21.3202 18.4912 21.3095 18.4288 21.3153 18.3898C21.4313 17.6229 21.5608 16.7964 21.7108 15.8672L21.7145 15.8785C21.7195 15.8934 21.7244 15.9082 21.7291 15.9233C21.8523 16.297 21.9799 16.6838 22.1294 17.058C23.0673 19.4052 24.3849 21.5903 26.0459 23.5525C26.2097 23.7458 26.4083 23.8562 26.6203 23.8719C26.8105 23.8858 26.9922 23.8212 27.1457 23.6857C27.4671 23.4017 27.4791 22.9638 27.1747 22.5967C25.0956 20.0867 23.6975 17.513 22.8999 14.7289C22.624 13.7651 22.3651 12.7349 22.4888 11.6616C22.508 11.4942 22.5129 11.3138 22.5035 11.1097C22.4932 10.8912 22.3977 10.7 22.2348 10.5708C22.071 10.4411 21.8531 10.3904 21.6367 10.4321C21.2831 10.4999 21.0622 10.7759 21.0309 11.1887C21.0202 11.3322 21.0131 11.4781 21.0064 11.6189L21.0061 11.6249C20.9884 11.9892 20.9716 12.3333 20.8944 12.6631C20.4194 14.688 20.119 16.2549 19.9208 17.7436C19.9204 17.7477 19.9199 17.7513 19.919 17.7544H19.9186C19.3397 17.7472 18.8692 17.7472 18.4389 17.7553H18.4318C18.4313 17.7522 18.4313 17.749 18.4309 17.7454C18.417 17.5529 18.3996 17.3587 18.3827 17.1707L18.3805 17.1466C18.362 16.9401 18.3428 16.7269 18.3291 16.5183C18.1064 13.1409 18.5782 9.91705 19.7316 6.93546C19.8477 6.63467 19.9787 6.34347 20.1171 6.03564L20.123 6.02237L20.1587 5.94308C20.1813 5.8927 20.2041 5.84219 20.2266 5.79129C20.2476 5.80071 20.2686 5.80969 20.29 5.81866C20.4321 5.87669 20.5764 5.93889 20.7163 5.99922L20.7165 5.99931L20.7166 5.99935L20.7314 6.00577L20.7402 6.00954C21.0812 6.15644 21.4336 6.30826 21.7974 6.42081C22.4941 6.63708 23.0557 7.00546 23.5141 7.54749C24.0711 8.20572 24.4845 9.00305 24.8157 10.0557C24.9636 10.5252 25.1034 11.007 25.239 11.4739L25.2509 11.5149L25.2556 11.5312L25.2557 11.5313L25.2558 11.5319L25.2559 11.5321C25.4056 12.0486 25.5603 12.5818 25.7267 13.1032C26.1362 14.3885 26.5624 15.6904 26.9765 16.9556L27.0542 17.1931C27.2381 17.754 27.4216 18.3148 27.6046 18.8762C27.6907 19.14 27.7764 19.4034 27.8621 19.6672C28.0911 20.3712 28.3281 21.0994 28.5647 21.8147C28.7031 22.2328 29.0883 22.4514 29.4806 22.3338C29.8864 22.2122 30.0828 21.829 29.9672 21.3808ZM18.8656 5.20215C18.7469 5.45791 18.6241 5.72264 18.5108 5.98737C17.8336 7.56857 17.3618 9.2606 17.0677 11.1604C16.7731 13.0633 16.715 15.0546 16.8905 17.2483C16.9043 17.4237 16.9239 17.5933 16.9489 17.754C16.6717 17.7499 16.3919 17.7508 16.1205 17.7517C16.0013 17.7522 15.8826 17.7526 15.7634 17.7526C15.613 17.7532 15.4622 17.7529 15.3113 17.7525H15.3104H15.3104H15.3103H15.3103H15.3103H15.3103H15.3103H15.3102H15.3102H15.3102H15.3102H15.3101H15.3101H15.3101H15.3101C15.2195 17.7524 15.1289 17.7522 15.0385 17.7522C14.3854 17.7513 13.7101 17.7504 13.0459 17.7562C13.2499 16.0274 13.2686 14.273 13.1026 12.5424C12.8299 9.70481 12.1536 7.23788 11.0355 5.00428L11.0814 4.96524C11.2243 4.8432 11.36 4.72743 11.5037 4.62558C11.5269 4.62782 11.5662 4.6359 11.6041 4.65115C12.4255 4.97915 13.2798 5.19049 14.1435 5.27978C15.5366 5.42336 16.9387 5.22145 18.3112 4.67942C18.492 4.60808 18.5331 4.63007 18.6139 4.71622C18.7143 4.82376 18.8293 4.91154 18.9404 4.99638L18.9478 5.00204L18.9518 5.00517L18.9558 5.00832C18.939 5.04408 18.9222 5.08027 18.9053 5.11664L18.9047 5.11811L18.9042 5.11922L18.9038 5.11998L18.9036 5.12039L18.9035 5.12068L18.9033 5.12108L18.8656 5.20215ZM10.0289 19.2347V19.2221H10.0454C12.7611 19.2261 15.5219 19.2261 18.1921 19.2257H19.9199V23.1491H10.1124C10.0861 23.1491 10.0584 23.1491 10.0334 23.1486C10.0329 23.1245 10.0329 23.0976 10.0329 23.0721V23.0719V23.0698C10.0329 22.7416 10.0329 22.4139 10.0334 22.0857C10.0338 21.1515 10.0343 20.1854 10.0289 19.2347ZM13.5949 10.95C13.7203 10.9577 13.8462 10.9613 13.9725 10.9613C14.101 10.9613 14.2296 10.9572 14.3573 10.9496C14.5264 10.9393 14.7045 10.7602 14.7099 10.5951C14.7192 10.3156 14.7184 10.0415 14.7175 9.75141V9.75134L14.7175 9.74707C14.717 9.65573 14.717 9.56394 14.717 9.47037V9.46977V9.24542H13.236V9.46977L13.2358 9.60988L13.2355 9.74662L13.2354 9.784C13.2345 10.0623 13.2337 10.3262 13.2431 10.5951C13.248 10.7607 13.4261 10.9397 13.5949 10.95ZM16.7609 9.22395V9.4483C16.7609 9.54162 16.7613 9.63316 16.7622 9.72335L16.7623 9.76759C16.7627 10.0586 16.7632 10.3352 16.7551 10.6154C16.7497 10.7868 16.5574 10.9433 16.4034 10.951C16.2681 10.9577 16.1409 10.9613 16.0204 10.9613C15.8883 10.9613 15.7637 10.9568 15.6446 10.9487C15.4749 10.9371 15.2951 10.7518 15.2875 10.5821C15.2741 10.2663 15.2741 9.92975 15.2875 9.58201C15.2937 9.41599 15.4718 9.23876 15.6401 9.23068C15.8508 9.22043 16.0623 9.22169 16.2861 9.22303H16.2862L16.2904 9.22305C16.3703 9.2235 16.4525 9.22395 16.5377 9.22395H16.7609ZM13.8805 14.9888C13.8167 14.9892 13.7627 14.9883 13.7167 14.9874L13.7161 14.9874C13.557 14.9847 13.4318 14.9826 13.3324 15.0812C13.2324 15.1813 13.2333 15.3082 13.2346 15.4837C13.2351 15.5277 13.2355 15.5784 13.2346 15.6376C13.2328 15.8314 13.2333 16.0289 13.2337 16.2196L13.234 16.3501L13.2342 16.4821V16.7064H14.717V15.8323C14.717 15.4698 14.717 15.2701 14.5733 15.127C14.4308 14.9846 14.2358 14.9861 13.8828 14.9887L13.8805 14.9888ZM15.6463 14.9946C15.8843 14.9829 16.1315 14.9825 16.4016 14.9937C16.5417 14.9991 16.7475 15.1252 16.7524 15.3096C16.7601 15.6015 16.7596 15.8983 16.7592 16.1864L16.7591 16.2281C16.7587 16.3115 16.7587 16.395 16.7587 16.4789V16.7033H15.2812V16.4789L15.281 16.3472L15.2808 16.2169L15.2808 16.2121C15.2799 15.907 15.279 15.619 15.2879 15.3235C15.2933 15.1364 15.5071 15.0013 15.6463 14.9946ZM14.3586 12.1184C14.1211 12.1041 13.8729 12.1036 13.6002 12.1167C13.4618 12.1234 13.2489 12.258 13.2436 12.446C13.2347 12.7407 13.2355 13.0282 13.2364 13.3321V13.3322L13.2364 13.3367L13.2366 13.4667L13.2369 13.5987V13.8231H14.717V13.5987L14.7172 13.4572L14.7175 13.3196L14.7175 13.3154V13.3153C14.7184 13.0248 14.7192 12.7502 14.7099 12.4716C14.7045 12.2925 14.5117 12.1279 14.3586 12.1184ZM16.7587 13.8235H15.2808H15.2803V13.5992C15.2803 13.504 15.2803 13.4112 15.2799 13.3192L15.2799 13.315C15.279 13.024 15.2781 12.7489 15.2875 12.4698C15.2937 12.2917 15.487 12.1279 15.6414 12.1185C15.8633 12.105 16.1034 12.1041 16.3976 12.1158C16.5185 12.1207 16.7475 12.2316 16.7524 12.4267C16.7601 12.7183 16.7596 13.0029 16.7592 13.3026L16.7591 13.3501C16.7587 13.4327 16.7587 13.5157 16.7587 13.5992V13.8235ZM13.7021 6.34195H13.7021L13.6989 6.34196C13.6248 6.34241 13.5502 6.34286 13.4748 6.34286H13.2516V8.05822H13.4748L13.5839 8.05845L13.6917 8.05867C13.7645 8.05912 13.8359 8.05912 13.9064 8.05912C14.072 8.05912 14.2341 8.05777 14.3988 8.05194C14.5822 8.04566 14.7094 7.83746 14.713 7.70241C14.7224 7.34569 14.7219 7.02039 14.7121 6.7072C14.7068 6.5524 14.5541 6.35677 14.3831 6.34959C14.157 6.34021 13.9357 6.34105 13.7021 6.34195ZM15.2817 8.04966V7.82531L15.2814 7.69384L15.2812 7.56372L15.2812 7.55923V7.55912V7.5591V7.55908V7.55906V7.55904V7.55902V7.559V7.55898C15.2803 7.25697 15.2795 6.97126 15.2884 6.678C15.2942 6.4891 15.5057 6.3536 15.6432 6.34687C15.8941 6.33431 16.1481 6.33386 16.3976 6.34642C16.5355 6.35315 16.7475 6.48866 16.7534 6.67756C16.7623 6.97235 16.7614 7.27297 16.7605 7.56372C16.76 7.65077 16.76 7.73782 16.76 7.82531V8.04966H15.2817ZM13.0052 20.6903V20.9147H14.5291V20.6903C14.5291 20.6194 14.5291 20.549 14.5295 20.479C14.5304 20.2376 14.5309 19.9881 14.5224 19.7431C14.5153 19.5425 14.28 19.4461 14.1613 19.4411C13.8845 19.4299 13.6315 19.4286 13.3868 19.4375C13.257 19.4425 13.0208 19.5502 13.0128 19.748C13.003 19.9908 13.0039 20.2371 13.0048 20.4749L13.005 20.5826L13.0052 20.6903ZM10.5466 20.9209V20.6966L10.5464 20.5734L10.5462 20.457L10.5461 20.4527V20.4526V20.4526V20.4526V20.4526V20.4526V20.4525C10.5448 20.2231 10.5436 20.0064 10.5542 19.7875C10.5627 19.6098 10.7595 19.4488 10.9144 19.4411C11.2014 19.4272 11.4643 19.429 11.7179 19.4474C11.8951 19.46 12.0602 19.6601 12.0714 19.8149C12.0879 20.0469 12.0884 20.2972 12.0723 20.5588C12.0625 20.7123 11.9013 20.9061 11.7264 20.9142C11.5706 20.9209 11.4152 20.9227 11.2559 20.9227C11.1807 20.9227 11.1047 20.9223 11.0274 20.9219L11.0224 20.9218C10.9403 20.9214 10.8564 20.9209 10.7698 20.9209H10.5466ZM11.2639 21.4576C10.9653 21.4576 10.801 21.4576 10.6738 21.5841C10.5457 21.7116 10.5457 21.8857 10.5457 22.1742C10.5457 22.4986 10.5457 22.6772 10.6792 22.8113C10.8126 22.9455 10.9903 22.9455 11.3135 22.9455H11.4246H11.4496C11.6951 22.9455 11.846 22.9419 11.9616 22.8234C12.0794 22.7027 12.0794 22.5435 12.0794 22.2796C12.0794 21.931 12.0794 21.7389 11.9402 21.599C11.8005 21.4576 11.6099 21.4576 11.2639 21.4576ZM13.0034 22.9446V22.7202C13.0034 22.6386 13.003 22.5596 13.0025 22.482C13.0012 22.2514 13.0003 22.0333 13.0092 21.813C13.0159 21.6497 13.1869 21.4751 13.3476 21.4671C13.6533 21.4523 13.9225 21.4523 14.1716 21.4671C14.3488 21.4774 14.5139 21.6784 14.5247 21.835C14.5407 22.0674 14.5407 22.3173 14.5251 22.5785C14.5157 22.7337 14.3559 22.9298 14.1832 22.9374C14.0261 22.9446 13.8689 22.9464 13.7082 22.9464C13.6339 22.9464 13.5592 22.946 13.4828 22.9455L13.4766 22.9455C13.3953 22.945 13.3123 22.9446 13.2266 22.9446H13.0034ZM15.449 20.6877V20.912H16.9644V20.6877C16.9644 20.6087 16.9649 20.5311 16.9653 20.4543C16.9667 20.2237 16.9676 20.0056 16.9586 19.784C16.9519 19.6207 16.7801 19.447 16.6185 19.4403C16.3587 19.4286 16.0904 19.4291 15.7981 19.4407C15.6481 19.447 15.462 19.5928 15.4557 19.7651C15.4472 19.9998 15.4481 20.2385 15.449 20.4687V20.6877ZM17.8951 20.9017V20.6773V20.6768C17.8951 20.6007 17.8951 20.5251 17.8942 20.4503L17.8942 20.4463C17.8933 20.2185 17.8925 20.003 17.9001 19.7831C17.9054 19.6337 18.0554 19.447 18.2232 19.4412C18.4615 19.4331 18.6949 19.434 18.942 19.4349H18.9422L18.9463 19.4349L19.0588 19.4351L19.174 19.4353H19.3972V20.9017H17.8951ZM16.6109 21.4666C16.3766 21.4536 16.1226 21.4527 15.8124 21.4639C15.6718 21.4693 15.4638 21.5927 15.4571 21.7749C15.4482 22.0176 15.4491 22.2621 15.45 22.499C15.4504 22.569 15.4504 22.639 15.4504 22.7086V22.9329H16.9645V22.7086C16.9645 22.6283 16.9649 22.5497 16.9654 22.4726L16.9654 22.4685C16.9667 22.2461 16.968 22.036 16.9578 21.8229C16.9497 21.6555 16.7748 21.476 16.6109 21.4666ZM18.267 21.4639C18.5473 21.4513 18.8022 21.4518 19.0463 21.4652C19.2012 21.4737 19.3972 21.6339 19.4052 21.8085C19.4159 22.0287 19.4146 22.245 19.4133 22.474L19.4132 22.4784C19.4128 22.5546 19.4123 22.6318 19.4123 22.7108V22.9351H17.897V22.7108C17.897 22.6368 17.897 22.5636 17.8965 22.4905C17.8952 22.2594 17.8943 22.0207 17.9041 21.7856C17.9121 21.6016 18.1277 21.4702 18.267 21.4639Z" fill="#009BE8"/>
</svg>
