<svg width="28" height="28" viewBox="0 0 28 28" fill="none" xmlns="http://www.w3.org/2000/svg">
<path d="M28 10.6641C28 4.78387 23.2161 0 17.3359 0H3.28125V1.64062H0V14.7656H3.28125V16.4062H11.5938V24.7188H13.2344V28H26.3594V24.7188H28V10.6641ZM26.3179 9.80231C22.0288 9.39407 18.6059 5.97119 18.1977 1.68207C22.4868 2.0903 25.9097 5.51318 26.3179 9.80231ZM4.92188 4.92188H7.38281V10.2539C7.38281 10.9324 6.83081 11.4844 6.15234 11.4844C5.47388 11.4844 4.92188 10.9324 4.92188 10.2539V4.92188ZM7.38281 1.64062V3.28125H4.92188V1.64062H7.38281ZM1.64062 13.125V3.28125H3.28125V13.125H1.64062ZM4.92188 12.8475C5.29507 13.0252 5.71228 13.125 6.15234 13.125C6.59241 13.125 7.00961 13.0252 7.38281 12.8475V14.7656H4.92188V12.8475ZM9.02344 14.7656V1.64062H16.5468C16.9465 6.86819 21.1318 11.0535 26.3594 11.4532V18.9766H13.2344V14.7656H9.02344ZM23.0781 21.8477C23.0781 22.5261 22.5261 23.0781 21.8477 23.0781H16.5156V20.6172H21.8477C22.5261 20.6172 23.0781 21.1692 23.0781 21.8477ZM13.2344 20.6172H14.875V23.0781H13.2344V20.6172ZM24.7188 26.3594H14.875V24.7188H24.7188V26.3594ZM24.4413 23.0781C24.619 22.7049 24.7188 22.2877 24.7188 21.8477C24.7188 21.4076 24.619 20.9904 24.4413 20.6172H26.3594V23.0781H24.4413Z" fill="#009BE8"/>
</svg>
