<svg width="19" height="30" viewBox="0 0 19 30" fill="none" xmlns="http://www.w3.org/2000/svg">
<path d="M6.00713 0.0019548C5.42712 -0.00101451 4.84711 -2.47419e-05 4.26711 -2.47419e-05H3.53171H2.84777C2.26777 -2.47419e-05 1.68677 -2.47419e-05 1.10676 -2.47419e-05C0.737579 -2.47419e-05 0.414913 0.0187809 0.205081 0.237521C-0.00574017 0.45725 -0.00969924 0.791793 0.00514734 1.14514C0.102145 3.49486 0.596041 5.85745 1.471 8.16758C1.73923 8.87526 1.82732 9.63046 1.75704 10.6163L1.73329 10.9449C1.66994 11.8139 1.60462 12.7126 1.61452 13.6014C1.64025 15.8898 2.07971 18.1475 2.50531 20.3319C2.57559 20.6941 2.64685 21.0574 2.71514 21.4196C2.98634 22.8479 3.26546 24.7304 3.01999 26.6357C2.81214 28.252 3.60198 29.4794 5.13415 29.9188C5.33507 29.9762 5.51422 30 5.67159 30C6.0289 30 6.27931 29.8782 6.44164 29.7535C6.68413 29.5674 6.97116 29.1923 6.95929 28.4629C6.93949 27.2801 6.93157 26.0765 6.92366 24.9135C6.91574 23.7921 6.90881 22.6321 6.89 21.4909L6.88703 21.3226C6.85338 19.1887 6.81874 16.9815 6.72075 14.8119C6.69601 14.2537 6.62079 13.6935 6.54853 13.1521C6.45648 12.4592 6.36048 11.7436 6.37532 11.0528C6.40996 9.50179 6.52478 7.92112 6.63662 6.3939C6.6871 5.70898 6.73857 5.00129 6.78212 4.30449L6.79696 4.06794C6.86031 3.05936 6.92563 2.01713 6.96721 0.989748C6.9771 0.749233 6.96226 0.446363 6.76529 0.2395C6.56734 0.0326378 6.2714 0.00294457 6.00713 0.0019548ZM5.31033 2.90991C5.29449 2.92277 5.27469 2.93663 5.25985 2.94356C4.04738 2.96236 2.93586 2.96236 1.86097 2.94158C1.83623 2.92673 1.80059 2.89506 1.78476 2.87229C1.72834 2.51301 1.69568 2.14382 1.66203 1.75286C1.65807 1.70535 1.65411 1.65784 1.64916 1.60935H5.3222C5.3222 1.65487 5.32319 1.7004 5.32319 1.74494C5.32616 2.14778 5.32913 2.52884 5.31033 2.90991ZM4.58977 26.996C5.20145 27.2553 5.35388 27.5147 5.33903 28.2481C5.08466 28.1659 4.88769 28.0293 4.761 27.8423C4.61155 27.6235 4.55414 27.3345 4.58977 26.996ZM3.00911 7.68754C2.74682 6.95807 2.52115 6.19793 2.30241 5.46253L2.20046 5.11908C2.1391 4.91518 2.09654 4.70139 2.052 4.47573H5.15889C5.148 4.62815 5.13712 4.77959 5.12623 4.93102C5.08565 5.48628 5.04408 6.06035 5.00944 6.62254C4.9837 7.04913 4.95104 7.48364 4.92036 7.90331C4.84117 8.97622 4.75803 10.0867 4.7709 11.1834C4.77882 11.8693 4.87186 12.5562 4.96193 13.2194C5.03715 13.7776 5.11633 14.3556 5.14009 14.9178C5.24005 17.2161 5.26777 19.5579 5.29548 21.8235C5.30538 22.6509 5.28558 23.4962 5.26678 24.3127C5.25787 24.6997 5.24896 25.0877 5.24203 25.4747C5.24203 25.4965 5.24104 25.5193 5.24104 25.541C4.82039 25.2748 4.64619 24.8779 4.60363 24.1593C4.51653 22.6846 4.24434 21.2058 3.98106 19.7756L3.89297 19.2966C3.40798 16.6361 2.99426 14.026 3.26645 11.3289C3.38324 10.1729 3.45945 8.93861 3.00911 7.68754Z" fill="#009BE8"/>
<path d="M18.147 0.243481C17.9431 0.0316694 17.6313 0.00197624 17.3255 0.00098647C16.7653 -3.30244e-06 16.2061 -3.30244e-06 15.6458 0.00098647H14.9005H14.1879C13.6336 0.00098647 13.0794 0.00098647 12.5251 0.00098647C12.0787 0.00098647 11.7808 0.0435467 11.5799 0.257337C11.3829 0.468159 11.3591 0.773999 11.3839 1.16793C11.4344 1.94787 11.4937 2.73969 11.5521 3.50478C11.6383 4.645 11.7273 5.82481 11.7867 6.98482L11.7877 7.00956C11.8778 8.79313 11.9708 10.6371 11.9194 12.4414C11.8996 13.1293 11.7966 13.835 11.6967 14.518C11.5967 15.1989 11.4937 15.9037 11.47 16.6074C11.4274 17.8238 11.4502 19.0591 11.472 20.2537C11.4858 21.0396 11.5007 21.8532 11.4967 22.6509C11.4888 24.3385 11.4502 26.1745 11.3779 28.4263C11.3621 28.9063 11.5492 29.3398 11.8906 29.617C12.1262 29.808 12.4192 29.9079 12.729 29.9079C12.8458 29.9079 12.9646 29.8941 13.0833 29.8644C14.7442 29.4606 15.5617 28.2501 15.3252 26.5437C15.3192 26.5031 15.3172 26.4556 15.3153 26.4061C15.3133 26.3566 15.3103 26.3072 15.3054 26.2577C15.0955 24.2791 15.4281 22.352 15.8507 20.2181L15.8933 20.0043C16.4614 17.1349 17.0493 14.1666 16.6693 11.1567C16.502 9.83734 16.6821 8.57439 17.2523 7.06202C17.9174 5.29528 18.2796 3.33454 18.3598 1.06796C18.3687 0.765091 18.3509 0.455292 18.147 0.243481ZM16.7673 1.60739L16.6297 2.91785H13.0962L13.019 1.60739H16.7673ZM15.0352 10.8172C15.2925 12.9908 15.1757 15.2752 14.666 18.0049C14.5858 18.4355 14.5017 18.866 14.4166 19.2966C14.0493 21.1722 13.6693 23.1122 13.6267 25.0818C13.6257 25.1184 13.598 25.1887 13.5634 25.2273C13.5238 25.2709 13.4515 25.3134 13.3753 25.358C13.3357 25.3817 13.2961 25.4045 13.2585 25.4292C13.1991 25.4678 13.1388 25.5064 13.0774 25.546C13.0794 25.2016 13.0804 24.8759 13.0744 24.5503C13.0616 23.9 13.0408 23.2408 13.021 22.6024C12.9774 21.2168 12.9329 19.7836 12.9685 18.3811C12.9942 17.4032 13.0992 16.4055 13.2001 15.4404C13.2763 14.7169 13.3545 13.9687 13.4001 13.2283C13.4872 11.8159 13.5089 10.4461 13.4654 9.15539C13.4307 8.13395 13.3426 7.10062 13.2575 6.10194C13.2179 5.64368 13.1774 5.17057 13.1427 4.70537C13.1388 4.65391 13.1378 4.59848 13.1388 4.53909H16.2763C16.2635 4.60244 16.2506 4.66479 16.2377 4.72715C16.1576 5.12306 16.0813 5.4962 15.9804 5.86242C15.7993 6.51666 15.6152 7.07291 15.4182 7.56186C15.0183 8.55163 14.8926 9.61662 15.0352 10.8172ZM13.6396 27.8433C13.4891 28.0729 13.2595 28.2214 12.9784 28.2748C12.8864 27.7225 13.1239 27.3454 13.7851 26.995C13.8464 27.3048 13.7979 27.6028 13.6396 27.8433Z" fill="#009BE8"/>
</svg>
