<svg width="30" height="30" viewBox="0 0 30 30" fill="none" xmlns="http://www.w3.org/2000/svg">
<path d="M28.2422 20.0977L30 17.2266L28.2422 14.3555L30 11.4844L28.2422 8.61328L30 5.74219L28.2422 2.87109L30 0H7.91016C3.54858 0 0 3.54858 0 7.91016V22.0898C0 26.4514 3.54858 30 7.91016 30C11.9746 30 15.3326 26.9183 15.7711 22.9688H30L28.2422 20.0977ZM7.91016 1.75781C11.3026 1.75781 14.0625 4.51767 14.0625 7.91016C14.0625 11.3026 11.3026 14.0625 7.91016 14.0625C4.51767 14.0625 1.75781 11.3026 1.75781 7.91016C1.75781 4.51767 4.51767 1.75781 7.91016 1.75781ZM7.91016 28.2422C4.51767 28.2422 1.75781 25.4823 1.75781 22.0898V12.876C3.20915 14.6706 5.4277 15.8203 7.91016 15.8203C10.3926 15.8203 12.6112 14.6706 14.0625 12.876V22.0898C14.0625 25.4823 11.3026 28.2422 7.91016 28.2422ZM27.9389 11.4844L26.1811 14.3555L27.9389 17.2266L26.1811 20.0977L26.8627 21.2109H15.8203V7.91016C15.8203 5.4277 14.6706 3.20915 12.876 1.75781H26.8627L26.1811 2.87109L27.9389 5.74219L26.1811 8.61328L27.9389 11.4844Z" fill="#009BE8"/>
<path d="M7.91016 12.3047C10.3333 12.3047 12.3047 10.3333 12.3047 7.91016C12.3047 5.48698 10.3333 3.51562 7.91016 3.51562C5.48698 3.51562 3.51562 5.48698 3.51562 7.91016C3.51562 10.3333 5.48698 12.3047 7.91016 12.3047ZM7.91016 5.27344C9.36401 5.27344 10.5469 6.4563 10.5469 7.91016C10.5469 9.36401 9.36401 10.5469 7.91016 10.5469C6.4563 10.5469 5.27344 9.36401 5.27344 7.91016C5.27344 6.4563 6.4563 5.27344 7.91016 5.27344Z" fill="#009BE8"/>
<path d="M8.78906 7.91016C8.78906 8.39561 8.39561 8.78906 7.91016 8.78906C7.4247 8.78906 7.03125 8.39561 7.03125 7.91016C7.03125 7.4247 7.4247 7.03125 7.91016 7.03125C8.39561 7.03125 8.78906 7.4247 8.78906 7.91016Z" fill="#009BE8"/>
</svg>
