<svg width="30" height="30" viewBox="0 0 30 30" fill="none" xmlns="http://www.w3.org/2000/svg">
<path fill-rule="evenodd" clip-rule="evenodd" d="M3.46096 2.56793C2.9527 2.56793 2.54065 2.97998 2.54065 3.48824V11.5831C2.23784 12.4264 0.900024 16.3543 0.900024 19.9492C0.900024 22.3898 1.66858 24.2638 2.99565 25.5273C4.32191 26.79 6.19457 27.432 8.38284 27.432C10.3979 27.432 11.8479 27.1358 13.0075 26.8989L13.0085 26.8987C13.7706 26.743 14.4156 26.6117 15 26.6117C15.5832 26.6117 16.188 26.7365 16.9692 26.8983C18.1143 27.1355 19.546 27.432 21.5625 27.432C23.7585 27.432 25.6447 26.79 26.9826 25.5275C28.3215 24.2642 29.1 22.3901 29.1 19.9492C29.1 16.3586 27.762 12.4268 27.4594 11.5833V3.48824C27.4594 2.97998 27.0473 2.56793 26.5391 2.56793C26.0308 2.56793 25.6188 2.97998 25.6188 3.48824V11.1877C24.7517 11.6514 22.907 12.6917 21.0396 14.0845C17.9817 16.3653 16.2155 18.5745 15.8111 20.6695H14.189C13.7846 18.5745 12.0183 16.3653 8.96041 14.0845C7.09302 12.6917 5.24832 11.6514 4.38127 11.1877V3.48824C4.38127 2.97998 3.96922 2.56793 3.46096 2.56793ZM2.74065 19.9492C2.74065 17.3938 3.51921 14.5445 3.98502 13.0696C4.90756 13.5837 6.38867 14.4626 7.85996 15.56C9.36644 16.6835 10.5134 17.7688 11.2829 18.7866C12.0531 19.8054 12.4391 20.7484 12.4391 21.5898C12.4391 22.9247 11.9526 23.9167 11.2075 24.5788C10.4606 25.2423 9.44643 25.5808 8.38244 25.5914C7.31874 25.5913 5.90754 25.4057 4.7646 24.6117C3.62813 23.8222 2.74065 22.4199 2.74065 19.9492ZM22.1223 15.5732C23.5964 14.4719 25.0875 13.5871 26.0149 13.07C26.4807 14.5461 27.2594 17.397 27.2594 19.9492C27.2594 22.4195 26.3637 23.8218 25.2165 24.6115C24.0626 25.4057 22.6383 25.5913 21.5657 25.5914C20.6568 25.5846 19.6545 25.3102 18.8816 24.6771C18.1117 24.0466 17.561 23.0537 17.561 21.5898C17.561 20.7502 17.9455 19.8092 18.7126 18.7928C19.4791 17.7772 20.6216 16.6943 22.1223 15.5732ZM13.3444 24.9551C13.7738 24.3207 14.1004 23.5195 14.2247 22.5101H15.7749C15.8981 23.5197 16.2219 24.3212 16.6476 24.9557C16.0857 24.8486 15.5543 24.7711 15 24.7711C14.4471 24.7711 13.912 24.8483 13.3444 24.9551Z" fill="#009BE8"/>
</svg>
