<svg width="30" height="30" viewBox="0 0 30 30" fill="none" xmlns="http://www.w3.org/2000/svg">
<path d="M27.9442 16.1102L18.0736 11.6788L14.6532 6.7188H10.718V8.73094C10.718 10.9568 8.90717 12.7676 6.68129 12.7676H5.83674L4.06912 10.8772H0V20.13C0 21.8676 1.41369 23.2813 3.15131 23.2813H22.9198L26.9802 22.7377C28.7017 22.5072 29.9999 21.0236 29.9999 19.2866C30 17.9177 29.193 16.6708 27.9442 16.1102ZM1.75825 20.13V18.4843H3.46481C6.05394 18.4843 8.50893 19.5903 10.2246 21.523H3.15131C2.38319 21.523 1.75825 20.8981 1.75825 20.13ZM26.7469 20.9949L22.8026 21.523H12.546L11.6531 20.4845C9.59934 18.096 6.61483 16.7261 3.46481 16.7261H1.75825V12.6355H3.30604L5.07366 14.5259H6.68135C9.87673 14.5259 12.4763 11.9263 12.4763 8.73094V8.47704H13.73L16.3499 12.2763L14.8937 13.7325L16.1369 14.9758L17.6824 13.4304L19.2024 14.1128L18.0164 15.2989L19.2596 16.5421L20.9185 14.8833L27.2242 17.7142C27.8424 17.9917 28.2418 18.609 28.2418 19.2866C28.2418 20.1464 27.5991 20.8808 26.7469 20.9949Z" fill="#009BE8"/>
</svg>
