<svg width="30" height="30" viewBox="0 0 30 30" fill="none" xmlns="http://www.w3.org/2000/svg">
<g clip-path="url(#clip0)">
<path d="M5.98314 29.9573C6.16201 29.9371 6.38131 29.8932 6.55649 29.8519L13.2596 28.2617C14.2938 28.4685 20.9691 29.8035 21.8596 29.9817C21.86 29.9817 21.8604 29.9818 21.8608 29.9818C21.8996 29.9895 21.9716 29.9987 22.0319 29.9987H27.3635C28.8172 29.9987 29.9999 28.816 29.9999 27.3622C29.9999 25.9084 28.8172 24.7257 27.3635 24.7257H25.8288L16.6986 18.2041C15.0855 17.0519 14.1225 15.1805 14.1225 13.1982V0.880112C14.1225 0.394763 13.729 0.00128174 13.2436 0.00128174H2.63907C2.15372 0.00128174 1.76024 0.394763 1.76024 0.880112V13.3712C1.76024 16.8057 1.25486 20.0716 0.258496 23.0769C0.0685519 23.6472 -0.0174564 24.2456 0.00293251 24.8555C0.0701924 27.8768 2.96436 30.3358 5.98314 29.9573ZM1.76007 24.8127C1.75995 24.8088 1.75983 24.8048 1.75972 24.8009C1.74589 24.3986 1.80184 24.0055 1.92652 23.6312C2.55576 21.7332 2.99863 19.7398 3.25502 17.6726L8.00685 20.7838L2.27782 26.4841C1.95441 25.9711 1.77231 25.3949 1.76007 24.8127ZM12.4267 14.1797C12.5033 14.7891 12.6502 15.384 12.862 15.9529L9.28034 19.5166L3.4415 15.6938C3.47408 15.1927 3.49664 14.6881 3.50794 14.1797H12.4267V14.1797ZM13.0407 26.5071L11.4485 26.8849L17.4398 20.8935L20.091 22.7873L15.8842 26.9941L13.4159 26.5004C13.2919 26.4756 13.1638 26.4779 13.0407 26.5071ZM24.1923 25.7167L21.7431 28.1659L17.9556 27.4084L21.541 23.823L24.1923 25.7167ZM28.2423 27.3622C28.2423 27.8468 27.8481 28.241 27.3635 28.241H24.1536L25.9113 26.4834H27.3635C27.8482 26.4834 28.2423 26.8776 28.2423 27.3622ZM15.9899 19.8578L8.18965 27.658L6.1568 28.1403C5.98601 28.1783 5.91137 28.1945 5.76847 28.2129C5.01115 28.3089 4.22513 28.1273 3.53695 27.7108C3.82397 27.4252 13.3182 17.9786 13.7027 17.5961C14.2265 18.3797 14.8917 19.0734 15.677 19.6344L15.9899 19.8578ZM12.3648 1.75894V12.4221H3.5179V1.75894H12.3648Z" fill="#009BE8"/>
</g>
<defs>
<clipPath id="clip0">
<rect width="30" height="30" fill="white"/>
</clipPath>
</defs>
</svg>
