<svg width="28" height="30" viewBox="0 0 28 30" fill="none" xmlns="http://www.w3.org/2000/svg">
<path d="M2.16791 2.51974V14.5813C2.16791 17.129 3.50535 19.4833 5.6844 20.7899V28.2418H3.92615V30H9.20088V28.2418H7.44264V20.7899C9.61905 19.4849 10.9591 17.1321 10.9591 14.5813V2.51974C12.1708 2.05544 13.0535 1.59455 13.127 1.55587L12.3077 0.000175824C12.2745 0.0176996 8.95584 1.75092 6.56352 1.75092C4.17829 1.75092 0.852278 0.0175238 0.81893 0L0.409612 0.778022L0.819282 0.000175824L0 1.55587C0.0734359 1.59455 0.95619 2.05538 2.16791 2.51974ZM6.56352 19.2681C4.92589 18.278 3.92615 16.5206 3.92615 14.5813V12.359H9.20088V14.5813C9.20088 16.5206 8.20114 18.278 6.56352 19.2681ZM9.20088 3.10119V10.6007H3.92615V3.10119C4.79853 3.33996 5.71563 3.50916 6.56352 3.50916C7.4114 3.50916 8.32844 3.33996 9.20088 3.10119Z" fill="#009BE8"/>
<path d="M14.8848 0L14.4755 0.778022L14.8852 0.000175824L14.0659 1.55587C14.1394 1.59455 15.0221 2.05538 16.2338 2.51974V14.5813C16.2338 17.129 17.5713 19.4833 19.7503 20.7899V28.2418H17.9921V30H23.2668V28.2418H21.5086V20.7899C23.685 19.4849 25.025 17.1321 25.025 14.5813V2.51974C26.2368 2.05544 27.1194 1.59455 27.1929 1.55587L26.3736 0.000175824C26.3404 0.0176996 23.0218 1.75092 20.6294 1.75092C18.2442 1.75092 14.9182 0.0175238 14.8848 0V0ZM20.6294 19.2681C18.9918 18.278 17.9921 16.5206 17.9921 14.5813V12.359H23.2668V14.5813C23.2668 16.5206 22.2671 18.278 20.6294 19.2681ZM23.2668 10.6007H17.9921V3.10119C18.8644 3.33996 19.7815 3.50916 20.6294 3.50916C21.4773 3.50916 22.3944 3.33996 23.2668 3.10119V10.6007Z" fill="#009BE8"/>
</svg>
