<svg width="30" height="30" viewBox="0 0 30 30" fill="none" xmlns="http://www.w3.org/2000/svg">
<path d="M13.404 13.0112C13.6553 11.4475 13.9152 9.83068 13.9152 8.09508C13.9152 6.08326 13.4213 4.1758 12.5245 2.72414C11.4393 0.967441 9.80234 0 7.91533 0C3.91132 0 1.12097 4.35422 1.12097 8.26201C1.12097 17.5011 4.25035 25.7657 5.3396 27.6001C6.17058 29.0808 7.73855 30 9.43501 30C12.0236 30 14.1295 27.8941 14.1295 25.3055C14.1295 24.6126 13.982 23.9459 13.6909 23.3225C12.4277 19.0839 12.924 15.9971 13.404 13.0112ZM9.43501 28.2422C8.37107 28.2422 7.38763 27.6637 6.86837 26.7325C6.8641 26.7247 6.85964 26.7171 6.85507 26.7094C5.97822 25.2428 2.87873 17.2334 2.87873 8.26195C2.87878 5.1917 5.03269 1.75781 7.91533 1.75781C9.20662 1.75781 10.2542 2.39379 11.0291 3.64793C11.7461 4.80873 12.1574 6.42961 12.1574 8.09502C12.1574 9.69029 11.9199 11.1679 11.6684 12.7323C11.1546 15.9291 10.6233 19.2347 12.0265 23.8925C12.04 23.9374 12.0571 23.9812 12.0777 24.0233C12.2728 24.4245 12.3717 24.8559 12.3717 25.3055C12.3717 26.9248 11.0543 28.2422 9.43501 28.2422Z" fill="#009BE8"/>
<path d="M10.2495 7.17516C10.1019 7.13502 6.60881 6.21955 4.1208 8.56307C3.76742 8.89588 3.75078 9.45211 4.0836 9.80543C4.25657 9.98906 4.48977 10.0818 4.72356 10.0818C4.93965 10.0818 5.15627 10.0025 5.32596 9.84264C7.08524 8.18566 9.75454 8.86266 9.79092 8.87221C10.2584 8.99748 10.7397 8.72145 10.8669 8.25398C10.9943 7.78559 10.7178 7.3026 10.2495 7.17516Z" fill="#009BE8"/>
<path d="M9.45484 23.3008C8.99512 23.3008 8.55467 23.7051 8.57594 24.1797C8.59726 24.6559 8.96213 25.0587 9.45484 25.0587C9.91457 25.0587 10.355 24.6544 10.3337 24.1797C10.3124 23.7036 9.94756 23.3008 9.45484 23.3008Z" fill="#009BE8"/>
<path d="M7.11109 20.0977C6.65137 20.0977 6.21092 20.5019 6.23219 20.9766C6.25351 21.4528 6.61838 21.8555 7.11109 21.8555C7.57082 21.8555 8.01127 21.4512 7.99 20.9766C7.96867 20.5004 7.60381 20.0977 7.11109 20.0977Z" fill="#009BE8"/>
<path d="M22.0847 0C20.1976 0 18.5608 0.967441 17.4755 2.72408C16.5787 4.17574 16.0848 6.0832 16.0848 8.09502C16.0848 9.83062 16.3447 11.4476 16.5961 13.0112C17.076 15.997 17.5722 19.0837 16.3094 23.322C16.0181 23.9454 15.8705 24.6123 15.8705 25.3055C15.8705 27.8941 17.9765 30 20.565 30C22.2615 30 23.8294 29.0808 24.6605 27.6001C25.7497 25.7656 28.8791 17.5011 28.8791 8.26201C28.8791 4.35422 26.0887 0 22.0847 0ZM23.1449 26.7095C23.1403 26.7171 23.1359 26.7248 23.1316 26.7325C22.6124 27.6637 21.629 28.2422 20.565 28.2422C18.9457 28.2422 17.6283 26.9248 17.6283 25.3055C17.6283 24.8559 17.7272 24.4245 17.9224 24.0233C17.9429 23.9811 17.9599 23.9373 17.9735 23.8924C19.3768 19.2346 18.8455 15.9291 18.3316 12.7322C18.0801 11.1679 17.8426 9.69023 17.8426 8.09502C17.8426 6.42955 18.2539 4.80867 18.971 3.64793C19.7458 2.39379 20.7934 1.75781 22.0847 1.75781C24.9673 1.75781 27.1212 5.1917 27.1212 8.26201C27.1212 17.2335 24.0218 25.2428 23.1449 26.7095Z" fill="#009BE8"/>
<path d="M25.8792 8.56311C23.3911 6.21977 19.898 7.13512 19.7505 7.1752C19.2821 7.30264 19.0057 7.78563 19.1331 8.25397C19.2605 8.72237 19.7434 8.99881 20.2118 8.87143C20.2385 8.86416 22.8946 8.16666 24.674 9.84262C24.8437 10.0025 25.0603 10.0817 25.2764 10.0817C25.5102 10.0817 25.7435 9.98905 25.9164 9.80541C26.2492 9.45209 26.2325 8.89586 25.8792 8.56311Z" fill="#009BE8"/>
<path d="M20.5452 23.3008C20.0854 23.3008 19.645 23.7051 19.6663 24.1797C19.6876 24.6559 20.0525 25.0587 20.5452 25.0587C21.0049 25.0587 21.4454 24.6544 21.4241 24.1797C21.4028 23.7036 21.038 23.3008 20.5452 23.3008Z" fill="#009BE8"/>
<path d="M22.8889 20.0977C22.4292 20.0977 21.9887 20.5019 22.01 20.9766C22.0313 21.4528 22.3962 21.8555 22.8889 21.8555C23.3487 21.8555 23.7891 21.4512 23.7678 20.9766C23.7465 20.5004 23.3817 20.0977 22.8889 20.0977Z" fill="#009BE8"/>
</svg>
