<svg width="26" height="26" viewBox="0 0 26 26" fill="none" xmlns="http://www.w3.org/2000/svg">
<path d="M16.6465 3.72449L20.125 9.74999H23.8333V11.9167H22.569L21.749 21.7566C21.7264 22.0273 21.603 22.2796 21.4031 22.4636C21.2033 22.6476 20.9416 22.7498 20.67 22.75H5.32996C5.05831 22.7498 4.79663 22.6476 4.59678 22.4636C4.39693 22.2796 4.27351 22.0273 4.25096 21.7566L3.42979 11.9167H2.16663V9.74999H5.87379L9.35346 3.72449L11.2298 4.80782L8.37629 9.74999H17.6225L14.7701 4.80782L16.6465 3.72449ZM20.3948 11.9167H5.60404L6.32663 20.5833H19.6722L20.3948 11.9167ZM14.0833 14.0833V18.4167H11.9166V14.0833H14.0833ZM9.74996 14.0833V18.4167H7.58329V14.0833H9.74996ZM18.4166 14.0833V18.4167H16.25V14.0833H18.4166Z" fill="#171717"/>
</svg>
