<svg width="19" height="19" viewBox="0 0 19 19" fill="none" xmlns="http://www.w3.org/2000/svg">
<g clip-path="url(#clip0)">
<path d="M18.5653 9.06948L17.137 8.33246L15.203 2.88082C15.0894 2.56064 14.7865 2.34668 14.4467 2.34668H0.802463C0.359289 2.34674 0 2.70597 0 3.14914V13.4202C0 13.8634 0.359289 14.2226 0.802463 14.2226H1.80753C1.99746 15.5939 3.17669 16.6534 4.59935 16.6534C6.02195 16.6534 7.20112 15.5939 7.39105 14.2226H11.8497C12.0396 15.5939 13.2188 16.6534 14.6415 16.6534C16.0642 16.6534 17.2433 15.5939 17.4333 14.2226H18.1976C18.6407 14.2226 19 13.8633 19 13.4202V9.78253C18.9998 9.48232 18.8321 9.2072 18.5653 9.06948ZM4.59926 15.2947C3.79394 15.2947 3.13873 14.6395 3.13873 13.8341C3.13873 13.0288 3.79388 12.3737 4.59926 12.3737C5.40452 12.3737 6.05967 13.0288 6.05967 13.8341C6.0597 14.6395 5.40452 15.2947 4.59926 15.2947ZM10.6189 4.04844H13.2134L14.3636 7.27856H10.619V4.04844H10.6189ZM14.6414 15.2947C13.8361 15.2947 13.1809 14.6395 13.1809 13.8341C13.1809 13.0288 13.8361 12.3737 14.6414 12.3737C15.4467 12.3737 16.1018 13.0288 16.1018 13.8341C16.1018 14.6395 15.4466 15.2947 14.6414 15.2947Z" fill="#171717"/>
</g>
<defs>
<clipPath id="clip0">
<rect width="19" height="19" fill="white"/>
</clipPath>
</defs>
</svg>
