<svg width="15" height="15" viewBox="0 0 15 15" fill="none" xmlns="http://www.w3.org/2000/svg">
<path d="M11.4775 10.8525L7.5 14.83L3.5225 10.8525C2.73584 10.0658 2.20012 9.06355 1.98308 7.97241C1.76604 6.88127 1.87744 5.75027 2.30319 4.72244C2.72893 3.69461 3.4499 2.81611 4.37493 2.19803C5.29995 1.57995 6.38749 1.25005 7.5 1.25005C8.61252 1.25005 9.70005 1.57995 10.6251 2.19803C11.5501 2.81611 12.2711 3.69461 12.6968 4.72244C13.1226 5.75027 13.234 6.88127 13.0169 7.97241C12.7999 9.06355 12.2642 10.0658 11.4775 10.8525ZM7.5 8.12501C7.83152 8.12501 8.14947 7.99331 8.38389 7.75889C8.61831 7.52447 8.75 7.20653 8.75 6.87501C8.75 6.54348 8.61831 6.22554 8.38389 5.99112C8.14947 5.7567 7.83152 5.625 7.5 5.625C7.16848 5.625 6.85054 5.7567 6.61612 5.99112C6.3817 6.22554 6.25 6.54348 6.25 6.87501C6.25 7.20653 6.3817 7.52447 6.61612 7.75889C6.85054 7.99331 7.16848 8.12501 7.5 8.12501Z" fill="#DEDEDE"/>
</svg>
