<svg width="25" height="24" viewBox="0 0 25 24" fill="none" xmlns="http://www.w3.org/2000/svg">
<path d="M18.8005 16.617L23.0835 20.899L21.6685 22.314L17.3865 18.031C15.7933 19.3082 13.8115 20.0029 11.7695 20C6.80153 20 2.76953 15.968 2.76953 11C2.76953 6.032 6.80153 2 11.7695 2C16.7375 2 20.7695 6.032 20.7695 11C20.7724 13.042 20.0778 15.0237 18.8005 16.617ZM16.7945 15.875C18.0636 14.5699 18.7724 12.8204 18.7695 11C18.7695 7.132 15.6365 4 11.7695 4C7.90153 4 4.76953 7.132 4.76953 11C4.76953 14.867 7.90153 18 11.7695 18C13.59 18.0029 15.3394 17.2941 16.6445 16.025L16.7945 15.875Z" fill="white"/>
</svg>
