<svg width="20" height="20" viewBox="0 0 20 20" fill="none" xmlns="http://www.w3.org/2000/svg">
<circle cx="10" cy="10" r="10" fill="#878787"/>
<path fill-rule="evenodd" clip-rule="evenodd" d="M16.6788 6.54168C16.7762 6.22947 16.6788 6 16.2156 6H14.684C14.2945 6 14.1151 6.19821 14.0177 6.41684C14.0177 6.41684 13.2388 8.24347 12.1354 9.43C11.7784 9.77347 11.6162 9.88263 11.4214 9.88263C11.3241 9.88263 11.1832 9.77347 11.1832 9.46126V6.54168C11.1832 6.16695 11.0702 6 10.7456 6H8.33875C8.09544 6 7.94906 6.17389 7.94906 6.33874C7.94906 6.694 8.50066 6.77589 8.55755 7.77505V9.94526C8.55755 10.4211 8.46828 10.5074 8.27354 10.5074C7.75433 10.5074 6.49141 8.67242 5.74223 6.57295C5.59542 6.16484 5.44817 6 5.05673 6H3.52512C3.08752 6 3 6.19821 3 6.41684C3 6.80716 3.51932 8.74316 5.41775 11.3036C6.68352 13.052 8.46653 14 10.0892 14C11.0628 14 11.1832 13.7895 11.1832 13.4268V12.1053C11.1832 11.6842 11.2754 11.6002 11.5836 11.6002C11.8109 11.6002 12.2003 11.7095 13.109 12.5525C14.1475 13.5516 14.3186 14 14.9028 14H16.4344C16.872 14 17.0908 13.7895 16.9645 13.374C16.8265 12.9599 16.3307 12.3593 15.6727 11.6471C15.3158 11.2411 14.7802 10.8039 14.6181 10.5854C14.3909 10.3043 14.4558 10.1795 14.6181 9.92979C14.6181 9.92979 16.4841 7.40053 16.6788 6.54179V6.54168Z" fill="white"/>
</svg>
