<svg width="100" height="110" fill="none" xmlns="http://www.w3.org/2000/svg"><g filter="url(#filter0_d)" fill="#009BE8"><path d="M58 56.103H42v18.619c4.66 1.642 8 6.071 8 11.278 0-5.207 3.34-9.636 8-11.278V56.103z"/><path d="M80 45.897c0 16.511-13.431 29.896-30 29.896-16.569 0-30-13.385-30-29.896C20 29.385 33.431 16 50 16c16.569 0 30 13.385 30 29.897z"/></g><path d="M47.029 44.964a8.02 8.02 0 112.935-2.935l-3.106-1.794a4.432 4.432 0 10-1.623 1.623l1.794 3.106z" fill="#fff"/><path d="M47.029 45.036a8.02 8.02 0 102.935 2.935l-3.106 1.794a4.432 4.432 0 11-1.623-1.623l1.794-3.106zm5.942-.072a8.02 8.02 0 10-2.935-2.935l3.106-1.794a4.432 4.432 0 111.623 1.623l-1.794 3.106z" fill="#fff"/><path d="M52.971 45.036a8.02 8.02 0 11-2.935 2.935l3.106 1.794a4.432 4.432 0 101.623-1.623l-1.794-3.106z" fill="#fff"/><path d="M55.603 49.595a2.754 2.754 0 112.755 4.771 2.754 2.754 0 01-2.755-4.77z" fill="#fff"/><defs><filter id="filter0_d" x="0" y="0" width="100" height="110" filterUnits="userSpaceOnUse" color-interpolation-filters="sRGB"><feFlood flood-opacity="0" result="BackgroundImageFix"/><feColorMatrix in="SourceAlpha" values="0 0 0 0 0 0 0 0 0 0 0 0 0 0 0 0 0 0 127 0"/><feOffset dy="4"/><feGaussianBlur stdDeviation="10"/><feColorMatrix values="0 0 0 0 0 0 0 0 0 0 0 0 0 0 0 0 0 0 0.25 0"/><feBlend in2="BackgroundImageFix" result="effect1_dropShadow"/><feBlend in="SourceGraphic" in2="effect1_dropShadow" result="shape"/></filter></defs></svg>