<svg width="70" height="70" fill="none" xmlns="http://www.w3.org/2000/svg"><g clip-path="url(#clip0)" fill="#ECECEC"><path d="M26.66 0c14.701 0 26.662 11.96 26.662 26.661a26.545 26.545 0 01-6.424 17.337l3.142 3.143 2.9-2.9L68.2 59.5a6.16 6.16 0 010 8.7 6.16 6.16 0 01-8.7 0L44.24 52.94l2.9-2.9-3.142-3.142a26.546 26.546 0 01-17.338 6.423C11.96 53.322 0 41.362 0 26.662 0 11.96 11.96 0 26.66 0zM62.4 65.3c.8.8 2.1.8 2.9 0 .8-.799.8-2.1 0-2.9L52.94 50.043l-2.9 2.9L62.4 65.3zM26.66 49.22c12.44 0 22.56-10.12 22.56-22.559 0-12.44-10.12-22.56-22.56-22.56-12.439 0-22.56 10.12-22.56 22.56s10.121 22.56 22.56 22.56z"/><path d="M26.661 8.204c10.178 0 18.458 8.28 18.458 18.457 0 10.178-8.28 18.458-18.458 18.458-10.177 0-18.457-8.28-18.457-18.458 0-10.177 8.28-18.457 18.457-18.457zm0 32.813c7.916 0 14.356-6.44 14.356-14.356 0-7.916-6.44-14.356-14.356-14.356-7.916 0-14.356 6.44-14.356 14.356 0 7.916 6.44 14.356 14.356 14.356z"/><path d="M22.56 19.66l4.101 4.1 4.102-4.1 2.9 2.9-4.101 4.101 4.102 4.102-2.9 2.9-4.103-4.101-4.101 4.101-2.9-2.9 4.101-4.102-4.102-4.102 2.9-2.9z"/></g><defs><clipPath id="clip0"><path fill="#fff" transform="matrix(-1 0 0 1 70 0)" d="M0 0h70v70H0z"/></clipPath></defs></svg>