<svg width="50" height="52" viewBox="0 0 50 52" fill="none" xmlns="http://www.w3.org/2000/svg">
<path d="M7.77236 27.5235L1.54409 27.5742C0.689262 27.5811 0 28.2612 0 29.0976V50.4766C0 51.3179 0.697151 52 1.55707 52H7.78534C8.64525 52 9.3424 51.3179 9.3424 50.4766V29.0469C9.3424 28.6406 9.17652 28.2512 8.88172 27.9652C8.58691 27.6791 8.18612 27.5157 7.77236 27.5235Z" fill="url(#paint0_linear)"/>
<path d="M14.0136 27.5234H45.1549C46.0149 27.5234 46.712 26.8414 46.712 26V1.52344C46.712 0.682094 46.0149 0 45.1549 0H14.0136C13.1537 0 12.4565 0.682094 12.4565 1.52344V26C12.4565 26.8414 13.1536 27.5234 14.0136 27.5234Z" fill="url(#paint1_linear)"/>
<path d="M49.8915 41.0313C49.3362 38.482 46.7566 36.8103 44.1366 37.306L35.5452 38.9489C35.3199 44.393 29.7413 47.943 24.6141 46.0505C24.6141 46.0505 21.7805 45.0045 19.9439 44.3264C19.1104 44.0186 18.7103 43.0908 19.0666 42.2919C19.3979 41.5486 20.267 41.1889 21.0436 41.4756L25.7134 43.1996C28.3568 44.1759 31.2782 42.8065 32.1732 40.2045C33.0325 37.7039 31.7219 35.027 29.2106 34.1057L20.8948 31.0548C20.0177 30.7328 19.0979 30.5703 18.1616 30.5703H12.4565V48.8719C13.2745 48.8963 14.2492 48.9399 14.5285 48.9856L24.9743 51.479C26.2634 51.7862 27.6173 51.7661 28.8971 51.4191L46.3902 46.6781C48.895 45.9997 50.4334 43.5195 49.8915 41.0313Z" fill="url(#paint2_linear)"/>
<defs>
<linearGradient id="paint0_linear" x1="25" y1="0" x2="25" y2="60.5499" gradientUnits="userSpaceOnUse">
<stop stop-color="#E0E0E0"/>
<stop offset="1" stop-color="#E0E0E0" stop-opacity="0"/>
</linearGradient>
<linearGradient id="paint1_linear" x1="25" y1="0" x2="25" y2="60.5499" gradientUnits="userSpaceOnUse">
<stop stop-color="#E0E0E0"/>
<stop offset="1" stop-color="#E0E0E0" stop-opacity="0"/>
</linearGradient>
<linearGradient id="paint2_linear" x1="25" y1="0" x2="25" y2="60.5499" gradientUnits="userSpaceOnUse">
<stop stop-color="#E0E0E0"/>
<stop offset="1" stop-color="#E0E0E0" stop-opacity="0"/>
</linearGradient>
</defs>
</svg>
