<svg width="57" height="42" viewBox="0 0 57 42" fill="none" xmlns="http://www.w3.org/2000/svg">
<path d="M0 15.3244V34.3848C0 38.5906 3.44363 42 7.69165 42H49.3083C53.5564 42 57 38.5906 57 34.3848V15.3244C57 14.593 56.4011 14 55.6623 14H1.33768C0.598945 14 0 14.593 0 15.3244ZM14.2314 24.5951H10.6643C9.37143 24.5951 8.32336 23.5575 8.32336 22.2774C8.32336 20.9974 9.37143 19.9598 10.6643 19.9598H14.2314C15.5243 19.9598 16.5724 20.9974 16.5724 22.2774C16.5724 23.5575 15.5243 24.5951 14.2314 24.5951Z" fill="url(#paint0_linear)"/>
<path d="M57 7.73437V7.27737C57 3.25815 53.5564 0 49.3084 0H7.69165C3.44363 0 0 3.25815 0 7.27737V7.73437C0 8.43331 0.598945 9 1.33768 9H55.6623C56.4011 9 57 8.43331 57 7.73437Z" fill="url(#paint1_linear)"/>
<defs>
<linearGradient id="paint0_linear" x1="28.5" y1="0" x2="28.5" y2="48.9057" gradientUnits="userSpaceOnUse">
<stop stop-color="#E0E0E0"/>
<stop offset="1" stop-color="#E0E0E0" stop-opacity="0"/>
</linearGradient>
<linearGradient id="paint1_linear" x1="28.5" y1="0" x2="28.5" y2="48.9057" gradientUnits="userSpaceOnUse">
<stop stop-color="#E0E0E0"/>
<stop offset="1" stop-color="#E0E0E0" stop-opacity="0"/>
</linearGradient>
</defs>
</svg>
