<svg width="53" height="53" viewBox="0 0 53 53" fill="none" xmlns="http://www.w3.org/2000/svg">
<path d="M36.6288 28.1562H16.189C15.8985 28.1562 15.6638 28.3956 15.6713 28.6859C15.7331 31.0819 15.8954 33.3707 16.1423 35.5349C16.1778 35.8463 16.4785 36.0567 16.7822 35.9793C19.9072 35.1832 23.1275 34.7812 26.4089 34.7812C29.6902 34.7812 32.9106 35.1832 36.0355 35.9793C36.3391 36.0567 36.6399 35.8463 36.6754 35.5349C36.9223 33.3706 37.0846 31.0818 37.1464 28.6859C37.1539 28.3956 36.9192 28.1562 36.6288 28.1562Z" fill="url(#paint0_linear)"/>
<path d="M36.6755 17.4651C36.6399 17.1537 36.3392 16.9434 36.0355 17.0207C32.9106 17.8169 29.6902 18.2189 26.4089 18.2189C23.1275 18.2189 19.9072 17.8169 16.7822 17.0208C16.4786 16.9435 16.1778 17.1538 16.1423 17.4652C15.8954 19.6295 15.7331 21.9183 15.6713 24.3142C15.6638 24.6047 15.8984 24.8439 16.189 24.8439H36.6287C36.9191 24.8439 37.1538 24.6046 37.1464 24.3142C37.0847 21.9182 36.9222 19.6294 36.6755 17.4651Z" fill="url(#paint1_linear)"/>
<path d="M36.0356 13.0968C35.1081 7.96501 33.6865 3.75638 32.0458 0.782164C31.9727 0.649664 31.8446 0.556189 31.6962 0.526273C29.9742 0.179289 28.2055 0 26.4089 0C24.6122 0 22.8435 0.179289 21.1215 0.526377C20.9731 0.556293 20.845 0.649768 20.7719 0.782268C19.1312 3.75638 17.7096 7.96501 16.7821 13.0969C16.7346 13.3596 16.8962 13.617 17.1539 13.6864C20.1062 14.4816 23.2089 14.9062 26.4089 14.9062C29.6088 14.9062 32.7115 14.4816 35.6638 13.6863C35.9215 13.617 36.0831 13.3595 36.0356 13.0968Z" fill="url(#paint2_linear)"/>
<path d="M37.424 2.38438C37.0022 2.19153 36.5628 2.61263 36.7296 3.04533C36.7325 3.05299 36.7355 3.06065 36.7384 3.06831C37.7458 5.68767 38.5642 8.66136 39.1766 11.8773C39.2378 12.1987 39.58 12.3818 39.8827 12.2576C41.92 11.4215 43.8631 10.4014 45.6917 9.21879C45.9625 9.04375 46.0112 8.66623 45.7915 8.43021C45.5812 8.20424 45.3666 7.98127 45.1471 7.76181C42.8749 5.48933 40.2618 3.68185 37.424 2.38438Z" fill="url(#paint3_linear)"/>
<path d="M40.9767 24.8436H52.2994C52.6029 24.8436 52.8407 24.5837 52.8158 24.2812C52.4498 19.8384 50.9878 15.6202 48.56 11.9424C48.4012 11.7018 48.0787 11.6367 47.8381 11.7956C45.8602 13.1022 43.7636 14.2269 41.5594 15.1592C41.1072 15.3505 40.6524 15.5326 40.195 15.706C39.9706 15.791 39.8335 16.0168 39.8634 16.255C40.1892 18.8531 40.3911 21.5634 40.46 24.3377C40.467 24.6189 40.6955 24.8436 40.9767 24.8436Z" fill="url(#paint4_linear)"/>
<path d="M16.7821 39.9032C17.7096 45.035 19.1312 49.2436 20.7719 52.2178C20.845 52.3503 20.9731 52.4438 21.1215 52.4737C22.8435 52.8207 24.6122 53 26.4089 53C28.2055 53 29.9742 52.8207 31.6962 52.4736C31.8446 52.4437 31.9727 52.3502 32.0458 52.2177C33.6865 49.2436 35.1081 45.035 36.0356 39.9031C36.0831 39.6404 35.9215 39.383 35.6638 39.3136C32.7115 38.5184 29.6088 38.0938 26.4089 38.0938C23.2089 38.0938 20.1062 38.5184 17.1539 39.3137C16.8962 39.383 16.7346 39.6405 16.7821 39.9032Z" fill="url(#paint5_linear)"/>
<path d="M11.2582 37.8407C11.7103 37.6494 12.1652 37.4673 12.6225 37.2939C12.8469 37.2089 12.9841 36.9831 12.9542 36.7449C12.6283 34.1468 12.4265 31.4365 12.3575 28.6622C12.3505 28.3812 12.122 28.1564 11.8409 28.1564H0.518134C0.214627 28.1564 -0.0231489 28.4163 0.00179835 28.7188C0.367726 33.1616 1.82988 37.3798 4.25753 41.0576C4.41633 41.2981 4.73888 41.3634 4.97945 41.2045C6.95732 39.8977 9.05393 38.773 11.2582 37.8407Z" fill="url(#paint6_linear)"/>
<path d="M45.6918 43.7811C43.8632 42.5985 41.9201 41.5783 39.8827 40.7423C39.58 40.6181 39.2378 40.8012 39.1766 41.1226C38.5642 44.3385 37.7459 47.3122 36.7384 49.9316C36.7355 49.9392 36.7325 49.9469 36.7296 49.9545C36.5629 50.3872 37.0023 50.8083 37.424 50.6155C40.2619 49.318 42.8749 47.5105 45.1473 45.2381C45.3668 45.0186 45.5813 44.7956 45.7917 44.5697C46.0112 44.3337 45.9625 43.9561 45.6918 43.7811Z" fill="url(#paint7_linear)"/>
<path d="M40.46 28.662C40.3911 31.4363 40.1891 34.1466 39.8634 36.7447C39.8335 36.9829 39.9706 37.2086 40.195 37.2937C40.6524 37.4671 41.1072 37.6492 41.5594 37.8405C43.7636 38.7728 45.8602 39.8975 47.8381 41.2041C48.0787 41.363 48.4011 41.2978 48.56 41.0572C50.9877 37.3795 52.4498 33.1614 52.8158 28.7185C52.8407 28.416 52.6029 28.1561 52.2994 28.1561H40.9767C40.6955 28.1562 40.467 28.3809 40.46 28.662Z" fill="url(#paint8_linear)"/>
<path d="M7.12612 9.21863C8.95472 10.4012 10.8978 11.4214 12.9352 12.2574C13.2379 12.3817 13.5801 12.1985 13.6413 11.8771C14.2537 8.6612 15.072 5.6875 16.0795 3.06814C16.0824 3.06048 16.0854 3.05282 16.0883 3.04516C16.2551 2.61247 15.8156 2.19137 15.3939 2.38422C12.5561 3.68179 9.94309 5.48927 7.67061 7.76165C7.45116 7.9811 7.23657 8.20407 7.02622 8.43005C6.80667 8.66606 6.85542 9.04358 7.12612 9.21863Z" fill="url(#paint9_linear)"/>
<path d="M12.3465 24.8438C12.4025 21.8931 12.6087 19.011 12.9542 16.2552C12.9841 16.017 12.8469 15.7912 12.6225 15.7061C12.1652 15.5328 11.7103 15.3507 11.2582 15.1594C9.05393 14.227 6.95732 13.1023 4.97945 11.7957C4.73888 11.6368 4.41643 11.7021 4.25753 11.9426C1.82988 15.6204 0.367726 19.8386 0.00179835 24.2814C-0.0231489 24.5838 0.214627 24.8438 0.518134 24.8438H12.3465Z" fill="url(#paint10_linear)"/>
<path d="M15.394 50.6153C15.8157 50.8082 16.2551 50.3871 16.0884 49.9544C16.0855 49.9467 16.0825 49.9391 16.0796 49.9314C15.0721 47.3121 14.2537 44.3384 13.6413 41.1225C13.5802 40.801 13.2379 40.6179 12.9353 40.7421C10.8979 41.5782 8.95478 42.5984 7.12617 43.7809C6.85537 43.956 6.80672 44.3335 7.02638 44.5695C7.23673 44.7955 7.45131 45.0185 7.67077 45.2379C9.94304 47.5104 12.5561 49.3179 15.394 50.6153Z" fill="url(#paint11_linear)"/>
<defs>
<linearGradient id="paint0_linear" x1="26.4088" y1="0" x2="26.4088" y2="61.7143" gradientUnits="userSpaceOnUse">
<stop stop-color="#E0E0E0"/>
<stop offset="1" stop-color="#E0E0E0" stop-opacity="0"/>
</linearGradient>
<linearGradient id="paint1_linear" x1="26.4088" y1="0" x2="26.4088" y2="61.7143" gradientUnits="userSpaceOnUse">
<stop stop-color="#E0E0E0"/>
<stop offset="1" stop-color="#E0E0E0" stop-opacity="0"/>
</linearGradient>
<linearGradient id="paint2_linear" x1="26.4088" y1="0" x2="26.4088" y2="61.7143" gradientUnits="userSpaceOnUse">
<stop stop-color="#E0E0E0"/>
<stop offset="1" stop-color="#E0E0E0" stop-opacity="0"/>
</linearGradient>
<linearGradient id="paint3_linear" x1="26.4088" y1="0" x2="26.4088" y2="61.7143" gradientUnits="userSpaceOnUse">
<stop stop-color="#E0E0E0"/>
<stop offset="1" stop-color="#E0E0E0" stop-opacity="0"/>
</linearGradient>
<linearGradient id="paint4_linear" x1="26.4088" y1="0" x2="26.4088" y2="61.7143" gradientUnits="userSpaceOnUse">
<stop stop-color="#E0E0E0"/>
<stop offset="1" stop-color="#E0E0E0" stop-opacity="0"/>
</linearGradient>
<linearGradient id="paint5_linear" x1="26.4088" y1="0" x2="26.4088" y2="61.7143" gradientUnits="userSpaceOnUse">
<stop stop-color="#E0E0E0"/>
<stop offset="1" stop-color="#E0E0E0" stop-opacity="0"/>
</linearGradient>
<linearGradient id="paint6_linear" x1="26.4088" y1="0" x2="26.4088" y2="61.7143" gradientUnits="userSpaceOnUse">
<stop stop-color="#E0E0E0"/>
<stop offset="1" stop-color="#E0E0E0" stop-opacity="0"/>
</linearGradient>
<linearGradient id="paint7_linear" x1="26.4088" y1="0" x2="26.4088" y2="61.7143" gradientUnits="userSpaceOnUse">
<stop stop-color="#E0E0E0"/>
<stop offset="1" stop-color="#E0E0E0" stop-opacity="0"/>
</linearGradient>
<linearGradient id="paint8_linear" x1="26.4088" y1="0" x2="26.4088" y2="61.7143" gradientUnits="userSpaceOnUse">
<stop stop-color="#E0E0E0"/>
<stop offset="1" stop-color="#E0E0E0" stop-opacity="0"/>
</linearGradient>
<linearGradient id="paint9_linear" x1="26.4088" y1="0" x2="26.4088" y2="61.7143" gradientUnits="userSpaceOnUse">
<stop stop-color="#E0E0E0"/>
<stop offset="1" stop-color="#E0E0E0" stop-opacity="0"/>
</linearGradient>
<linearGradient id="paint10_linear" x1="26.4088" y1="0" x2="26.4088" y2="61.7143" gradientUnits="userSpaceOnUse">
<stop stop-color="#E0E0E0"/>
<stop offset="1" stop-color="#E0E0E0" stop-opacity="0"/>
</linearGradient>
<linearGradient id="paint11_linear" x1="26.4088" y1="0" x2="26.4088" y2="61.7143" gradientUnits="userSpaceOnUse">
<stop stop-color="#E0E0E0"/>
<stop offset="1" stop-color="#E0E0E0" stop-opacity="0"/>
</linearGradient>
</defs>
</svg>
