<svg width="53" height="47" viewBox="0 0 53 47" fill="none" xmlns="http://www.w3.org/2000/svg">
<path d="M49.6875 21.5312V16.5625C49.6875 14.733 48.2043 13.25 46.375 13.25H9.9375C8.11066 13.25 6.625 11.7643 6.625 9.9375C6.625 8.11066 8.11066 6.625 9.9375 6.625H46.375C48.2043 6.625 49.6875 5.14183 49.6875 3.3125C49.6875 1.48317 48.2043 0 46.375 0H9.9375C4.45759 0 0 4.45769 0 9.9375V13.25V39.75C0 43.4089 2.96634 46.375 6.625 46.375H46.375C48.2043 46.375 49.6875 44.892 49.6875 43.0625V38.0938C51.5168 38.0938 53 36.6108 53 34.7812V24.8438C53 23.0142 51.5168 21.5312 49.6875 21.5312ZM44.7188 33.125C42.8894 33.125 41.4062 31.642 41.4062 29.8125C41.4062 27.983 42.8894 26.5 44.7188 26.5C46.5481 26.5 48.0312 27.983 48.0312 29.8125C48.0312 31.642 46.5481 33.125 44.7188 33.125Z" fill="url(#paint0_linear)"/>
<defs>
<linearGradient id="paint0_linear" x1="26.5" y1="0" x2="26.5" y2="54" gradientUnits="userSpaceOnUse">
<stop stop-color="#E0E0E0"/>
<stop offset="1" stop-color="#E0E0E0" stop-opacity="0"/>
</linearGradient>
</defs>
</svg>
