<svg width="37" height="54" viewBox="0 0 37 54" fill="none" xmlns="http://www.w3.org/2000/svg">
<path d="M18.5 0C8.29918 0 0 8.42036 0 18.7701C0 31.7787 18.5182 54 18.5182 54C18.5182 54 37 31.139 37 18.7701C37 8.42036 28.7012 0 18.5 0ZM24.0818 24.2661C22.5427 25.8273 20.5215 26.6081 18.5 26.6081C16.4788 26.6081 14.457 25.8273 12.9185 24.2661C9.84057 21.1435 9.84057 16.0626 12.9185 12.9397C14.4089 11.4269 16.3914 10.5937 18.5 10.5937C20.6086 10.5937 22.5908 11.4272 24.0818 12.9397C27.1598 16.0626 27.1598 21.1435 24.0818 24.2661Z" fill="url(#paint0_linear)"/>
<defs>
<linearGradient id="paint0_linear" x1="18.5" y1="0" x2="18.5" y2="62.8787" gradientUnits="userSpaceOnUse">
<stop stop-color="#E0E0E0"/>
<stop offset="1" stop-color="#E0E0E0" stop-opacity="0"/>
</linearGradient>
</defs>
</svg>
