<svg width="54" height="36" viewBox="0 0 54 36" fill="none" xmlns="http://www.w3.org/2000/svg">
<path d="M31.5001 10.125H24.7501V16.875H31.5001C33.3607 16.875 34.8751 15.3609 34.8751 13.5C34.8751 11.6391 33.3607 10.125 31.5001 10.125Z" fill="url(#paint0_linear)"/>
<path d="M47.8124 0H6.18764C2.77432 0 0 2.77432 0 6.18764V29.8126C0 33.226 2.77432 35.9999 6.18764 35.9999H47.8124C51.2257 35.9999 54 33.226 54 29.8126V6.18764C54 2.77432 51.2257 0 47.8124 0ZM14.0624 10.125H8.4375C7.506 10.125 6.75 9.369 6.75 8.4375C6.75 7.506 7.506 6.75 8.4375 6.75H14.0624C14.9939 6.75 15.7499 7.506 15.7499 8.4375C15.7499 9.369 14.9939 10.125 14.0624 10.125ZM31.5001 20.25H24.7501V22.4999H29.8126C30.7441 22.4999 31.5001 23.2559 31.5001 24.1874C31.5001 25.1189 30.7441 25.8749 29.8126 25.8749H24.7501V27.5624C24.7501 28.4939 23.9941 29.2499 23.0626 29.2499C22.1311 29.2499 21.3751 28.4939 21.3751 27.5624V25.8749H17.4374C16.5059 25.8749 15.7499 25.1189 15.7499 24.1874C15.7499 23.2559 16.5059 22.4999 17.4374 22.4999H21.3751V8.4375C21.3751 7.506 22.1311 6.75 23.0626 6.75H31.5001C35.2216 6.75 38.2501 9.77852 38.2501 13.5C38.2501 17.2215 35.2216 20.25 31.5001 20.25ZM45.5625 29.2499H39.9376C39.0061 29.2499 38.2501 28.4939 38.2501 27.5624C38.2501 26.6309 39.0061 25.8749 39.9376 25.8749H45.5625C46.494 25.8749 47.25 26.6309 47.25 27.5624C47.25 28.4939 46.494 29.2499 45.5625 29.2499Z" fill="url(#paint1_linear)"/>
<defs>
<linearGradient id="paint0_linear" x1="27" y1="0" x2="27" y2="41.919" gradientUnits="userSpaceOnUse">
<stop stop-color="#E0E0E0"/>
<stop offset="1" stop-color="#E0E0E0" stop-opacity="0"/>
</linearGradient>
<linearGradient id="paint1_linear" x1="27" y1="0" x2="27" y2="41.919" gradientUnits="userSpaceOnUse">
<stop stop-color="#E0E0E0"/>
<stop offset="1" stop-color="#E0E0E0" stop-opacity="0"/>
</linearGradient>
</defs>
</svg>
