<svg width="19" height="19" fill="none" xmlns="http://www.w3.org/2000/svg"><g clip-path="url(#clip0)"><path d="M18.565 9.07l-1.428-.738-1.934-5.451a.802.802 0 00-.756-.534H.802A.803.803 0 000 3.149V13.42c0 .443.36.803.802.803h1.006a2.823 2.823 0 002.791 2.43 2.823 2.823 0 002.792-2.43h4.459a2.823 2.823 0 002.792 2.43 2.823 2.823 0 002.791-2.43h.765c.443 0 .802-.36.802-.803V9.783c0-.3-.168-.576-.435-.714zM4.6 15.294a1.462 1.462 0 010-2.921 1.461 1.461 0 010 2.92zm6.02-11.247h2.594l1.15 3.23H10.62v-3.23zm4.022 11.247a1.462 1.462 0 010-2.921 1.461 1.461 0 010 2.92z" fill="#171717"/></g><defs><clipPath id="clip0"><path fill="#fff" d="M0 0h19v19H0z"/></clipPath></defs></svg>