<svg width="20" height="20" fill="none" xmlns="http://www.w3.org/2000/svg"><circle cx="10" cy="10" r="10" fill="#878787"/><path fill-rule="evenodd" clip-rule="evenodd" d="M16.679 6.542c.097-.313 0-.542-.463-.542h-1.532c-.39 0-.569.198-.666.417 0 0-.78 1.826-1.883 3.013-.357.343-.519.453-.714.453-.097 0-.238-.11-.238-.422v-2.92c0-.374-.113-.541-.437-.541H8.339c-.244 0-.39.174-.39.339 0 .355.552.437.609 1.436v2.17c0 .476-.09.562-.284.562-.52 0-1.783-1.835-2.532-3.934C5.595 6.165 5.448 6 5.057 6H3.525C3.088 6 3 6.198 3 6.417c0 .39.52 2.326 2.418 4.887C6.684 13.052 8.467 14 10.089 14c.974 0 1.094-.21 1.094-.573v-1.322c0-.42.092-.505.4-.505.228 0 .617.11 1.526.953 1.039.999 1.21 1.447 1.794 1.447h1.531c.438 0 .657-.21.53-.626-.137-.414-.633-1.015-1.291-1.727-.357-.406-.893-.843-1.055-1.062-.227-.28-.162-.405 0-.655 0 0 1.866-2.53 2.06-3.388z" fill="#fff"/></svg>