<svg width="50" height="52" fill="none" xmlns="http://www.w3.org/2000/svg"><path d="M7.772 27.523l-6.228.051C.69 27.581 0 28.261 0 29.098v21.379C0 51.317.697 52 1.557 52h6.228c.86 0 1.557-.682 1.557-1.523v-21.43c0-.406-.165-.796-.46-1.082a1.558 1.558 0 00-1.11-.442z" fill="url(#paint0_linear)"/><path d="M14.014 27.523h31.14c.86 0 1.558-.682 1.558-1.523V1.523c0-.84-.697-1.523-1.557-1.523H14.014c-.86 0-1.557.682-1.557 1.523V26c0 .841.697 1.523 1.557 1.523z" fill="url(#paint1_linear)"/><path d="M49.892 41.031c-.556-2.549-3.135-4.22-5.755-3.725l-8.592 1.643c-.225 5.444-5.804 8.994-10.93 7.102l-4.671-1.725a1.513 1.513 0 01-.877-2.034 1.57 1.57 0 011.977-.816l4.67 1.724c2.643.976 5.564-.394 6.46-2.995.858-2.501-.452-5.178-2.963-6.1l-8.316-3.05a7.906 7.906 0 00-2.733-.485h-5.705v18.302c.817.024 1.792.068 2.071.114l10.446 2.493a7.965 7.965 0 003.923-.06l17.493-4.74c2.505-.68 4.043-3.16 3.502-5.648z" fill="url(#paint2_linear)"/><defs><linearGradient id="paint0_linear" x1="25" y1="0" x2="25" y2="60.55" gradientUnits="userSpaceOnUse"><stop stop-color="#E0E0E0"/><stop offset="1" stop-color="#E0E0E0" stop-opacity="0"/></linearGradient><linearGradient id="paint1_linear" x1="25" y1="0" x2="25" y2="60.55" gradientUnits="userSpaceOnUse"><stop stop-color="#E0E0E0"/><stop offset="1" stop-color="#E0E0E0" stop-opacity="0"/></linearGradient><linearGradient id="paint2_linear" x1="25" y1="0" x2="25" y2="60.55" gradientUnits="userSpaceOnUse"><stop stop-color="#E0E0E0"/><stop offset="1" stop-color="#E0E0E0" stop-opacity="0"/></linearGradient></defs></svg>