<svg width="57" height="42" fill="none" xmlns="http://www.w3.org/2000/svg"><path d="M0 15.324v19.06C0 38.592 3.444 42 7.692 42h41.616C53.556 42 57 38.59 57 34.385v-19.06c0-.732-.599-1.325-1.338-1.325H1.338A1.33 1.33 0 000 15.324zm14.231 9.271h-3.567a2.328 2.328 0 01-2.34-2.318 2.328 2.328 0 012.34-2.317h3.567c1.293 0 2.341 1.037 2.341 2.317a2.33 2.33 0 01-2.34 2.318z" fill="url(#paint0_linear)"/><path d="M57 7.734v-.457C57 3.258 53.556 0 49.308 0H7.692C3.444 0 0 3.258 0 7.277v.457C0 8.434.599 9 1.338 9h54.324C56.402 9 57 8.433 57 7.734z" fill="url(#paint1_linear)"/><defs><linearGradient id="paint0_linear" x1="28.5" y1="0" x2="28.5" y2="48.906" gradientUnits="userSpaceOnUse"><stop stop-color="#E0E0E0"/><stop offset="1" stop-color="#E0E0E0" stop-opacity="0"/></linearGradient><linearGradient id="paint1_linear" x1="28.5" y1="0" x2="28.5" y2="48.906" gradientUnits="userSpaceOnUse"><stop stop-color="#E0E0E0"/><stop offset="1" stop-color="#E0E0E0" stop-opacity="0"/></linearGradient></defs></svg>