<svg width="53" height="47" fill="none" xmlns="http://www.w3.org/2000/svg"><path d="M49.688 21.531v-4.968a3.313 3.313 0 00-3.313-3.313H9.937a3.316 3.316 0 01-3.312-3.313 3.316 3.316 0 013.313-3.312h36.437a3.313 3.313 0 000-6.625H9.937C4.457 0 0 4.458 0 9.938V39.75a6.625 6.625 0 006.625 6.625h39.75a3.313 3.313 0 003.313-3.313v-4.968A3.313 3.313 0 0053 34.78v-9.937a3.313 3.313 0 00-3.313-3.313zm-4.97 11.594a3.313 3.313 0 110-6.625 3.313 3.313 0 010 6.625z" fill="url(#paint0_linear)"/><defs><linearGradient id="paint0_linear" x1="26.5" y1="0" x2="26.5" y2="54" gradientUnits="userSpaceOnUse"><stop stop-color="#E0E0E0"/><stop offset="1" stop-color="#E0E0E0" stop-opacity="0"/></linearGradient></defs></svg>