<svg width="37" height="54" fill="none" xmlns="http://www.w3.org/2000/svg"><path d="M18.5 0C8.3 0 0 8.42 0 18.77 0 31.78 18.518 54 18.518 54S37 31.139 37 18.77C37 8.42 28.701 0 18.5 0zm5.582 24.266a7.813 7.813 0 01-5.582 2.342 7.811 7.811 0 01-5.582-2.342c-3.077-3.122-3.077-8.203 0-11.326a7.784 7.784 0 015.582-2.346c2.109 0 4.09.833 5.582 2.346 3.078 3.123 3.078 8.204 0 11.326z" fill="url(#paint0_linear)"/><defs><linearGradient id="paint0_linear" x1="18.5" y1="0" x2="18.5" y2="62.879" gradientUnits="userSpaceOnUse"><stop stop-color="#E0E0E0"/><stop offset="1" stop-color="#E0E0E0" stop-opacity="0"/></linearGradient></defs></svg>