<svg width="54" height="36" fill="none" xmlns="http://www.w3.org/2000/svg"><path d="M31.5 10.125h-6.75v6.75h6.75a3.38 3.38 0 003.375-3.375 3.38 3.38 0 00-3.375-3.375z" fill="url(#paint0_linear)"/><path d="M47.812 0H6.188A6.193 6.193 0 000 6.188v23.625A6.192 6.192 0 006.188 36h41.624A6.192 6.192 0 0054 29.813V6.188A6.193 6.193 0 0047.812 0zm-33.75 10.125H8.438a1.688 1.688 0 010-3.375h5.624a1.688 1.688 0 010 3.375zM31.5 20.25h-6.75v2.25h5.063a1.688 1.688 0 010 3.375H24.75v1.687a1.688 1.688 0 01-3.375 0v-1.687h-3.938a1.688 1.688 0 010-3.375h3.938V8.437c0-.931.756-1.687 1.688-1.687H31.5a6.758 6.758 0 016.75 6.75 6.758 6.758 0 01-6.75 6.75zm14.063 9h-5.625a1.688 1.688 0 010-3.375h5.624a1.688 1.688 0 010 3.375z" fill="url(#paint1_linear)"/><defs><linearGradient id="paint0_linear" x1="27" y1="0" x2="27" y2="41.919" gradientUnits="userSpaceOnUse"><stop stop-color="#E0E0E0"/><stop offset="1" stop-color="#E0E0E0" stop-opacity="0"/></linearGradient><linearGradient id="paint1_linear" x1="27" y1="0" x2="27" y2="41.919" gradientUnits="userSpaceOnUse"><stop stop-color="#E0E0E0"/><stop offset="1" stop-color="#E0E0E0" stop-opacity="0"/></linearGradient></defs></svg>