<svg width="45" height="26" fill="none" xmlns="http://www.w3.org/2000/svg"><path fill-rule="evenodd" clip-rule="evenodd" d="M37.846 3.77c2.01 0 3.818.759 5.087 2.134C44.279 7.365 45 9.462 45 11.952v9.586c0 .635-.52 1.154-1.154 1.154H41.27a3.876 3.876 0 01-3.779 3.02 3.886 3.886 0 01-3.778-3.02H19.885a3.876 3.876 0 01-3.78 3.02 3.868 3.868 0 01-3.778-3.02h-3.51a1.158 1.158 0 01-1.154-1.154V17.52h-2.49a1.157 1.157 0 01-1.154-1.154c0-.634.52-1.153 1.154-1.153h3.654c.635 0 1.154.519 1.154 1.153v4.03h2.279c.086 0 .163.009.25.028a3.872 3.872 0 013.596-2.452 3.889 3.889 0 013.596 2.433c.048-.01.096-.01.144-.01h10.866V2.308H9.98v4.019c0 .635-.52 1.154-1.154 1.154H5.173c-.635 0-1.154-.52-1.154-1.154 0-.635.52-1.154 1.154-1.154h2.49v-4.02C7.663.52 8.183 0 8.817 0h23.039c.634 0 1.154.52 1.154 1.154v2.615h4.836zM14.54 21.845a1.568 1.568 0 103.135 0 1.568 1.568 0 00-3.135 0zm21.384 0c0 .866.702 1.567 1.567 1.567a1.58 1.58 0 001.568-1.567 1.568 1.568 0 00-3.135 0zm5.154-1.452h1.615v-8.432c0-3.683-1.807-5.885-4.836-5.885H33.02v14.317h.885a3.877 3.877 0 013.586-2.423c1.616 0 3.01 1.01 3.587 2.423z" fill="#171717"/><path d="M17.817 15.144a1.155 1.155 0 010-1.634l.99-1.058H1.155c-.635 0-1.154-.52-1.154-1.154 0-.635.52-1.154 1.154-1.154h17.663l-.855-.856a1.155 1.155 0 111.634-1.634l2.837 2.836c.01.015.021.027.033.039a.253.253 0 01.034.038l.014.024.015.024c.02.02.029.03.038.048l.03.058c.004.01.009.017.014.024.004.007.01.015.014.024l.029.058c0 .014.005.023.012.034l.007.014c.005.01.007.02.01.029.002.01.005.019.01.029.005.005.007.014.01.023a.095.095 0 00.009.025c0 .01.002.019.004.029.003.01.005.019.005.028 0 .01.003.02.005.03a.12.12 0 01.005.028c0 .016.003.029.005.04.002.01.004.019.004.027.01.02.01.03.01.048a.893.893 0 01-.005.255.071.071 0 00-.005.024.172.172 0 01-.005.04.125.125 0 00-.004.028.12.12 0 01-.005.028c-.002.01-.005.02-.005.03 0 .019 0 .038-.01.057-.005.005-.007.014-.01.024a.13.13 0 01-.009.024c-.005.01-.007.02-.01.029-.002.01-.004.02-.009.029a.058.058 0 01-.012.034l-.007.014-.029.058a.211.211 0 01-.014.024.204.204 0 00-.015.024l-.029.057c-.019.02-.029.03-.038.048a.204.204 0 01-.015.024.253.253 0 01-.048.063c-.012.012-.024.024-.033.038l-2.981 2.981a1.157 1.157 0 01-1.635 0z" fill="#171717"/></svg>