<svg width="34" height="34" fill="none" xmlns="http://www.w3.org/2000/svg"><path d="M29.532 15.912v15.115H4.507V15.912H2.176v16.281c0 .644.522 1.166 1.166 1.166h27.355c.644 0 1.166-.522 1.166-1.166V15.912h-2.331z" fill="#171717"/><path d="M32.834 7.169H1.166C.522 7.169 0 7.69 0 8.334v7.617c0 .643.522 1.165 1.166 1.165h31.668c.644 0 1.166-.521 1.166-1.165V8.334c0-.643-.522-1.165-1.166-1.165zm-1.166 7.616H2.332V9.501H31.67v5.284z" fill="#171717"/><path d="M18.147 8.04c-.08-.303-2.002-7.4-7.617-7.4A4.435 4.435 0 006.1 5.07c0 2.442 1.97 4.43 4.391 4.43h6.528a1.166 1.166 0 001.128-1.461zm-7.655-.87c-1.155 0-2.06-.923-2.06-2.1 0-1.137.961-2.098 2.098-2.098 2.558 0 4.09 2.52 4.826 4.197h-4.864z" fill="#171717"/><path d="M23.509.641c-5.615 0-7.538 7.096-7.617 7.399a1.165 1.165 0 001.127 1.46h6.528c2.422 0 4.391-1.987 4.391-4.43a4.435 4.435 0 00-4.43-4.429zm.038 6.528h-4.87c.732-1.677 2.259-4.196 4.832-4.196 1.137 0 2.098.96 2.098 2.098 0 1.176-.904 2.098-2.06 2.098z" fill="#171717"/><path d="M18.185 8.335h-2.331v23.858h2.331V8.335z" fill="#171717"/></svg>