<svg width="100" height="110" viewBox="0 0 100 110" fill="none" xmlns="http://www.w3.org/2000/svg">
<g filter="url(#filter0_d)">
<path d="M58 56.1034H42V74.7218C46.6608 76.3635 50 80.7931 50 86C50 80.7931 53.3392 76.3635 58 74.7218V56.1034Z" fill="#FFB717"/>
<path d="M80 45.8966C80 62.408 66.5685 75.7931 50 75.7931C33.4315 75.7931 20 62.408 20 45.8966C20 29.3851 33.4315 16 50 16C66.5685 16 80 29.3851 80 45.8966Z" fill="#FFB717"/>
</g>
<path d="M47.0288 44.964C45.3439 45.9368 43.3629 46.2638 41.4547 45.8843C39.5466 45.5047 37.8415 44.4445 36.6571 42.901C35.4728 41.3575 34.8899 39.4361 35.0172 37.4947C35.1444 35.5534 35.9731 33.7245 37.3488 32.3488C38.7245 30.9731 40.5534 30.1444 42.4947 30.0172C44.4361 29.8899 46.3575 30.4728 47.901 31.6571C49.4445 32.8415 50.5048 34.5466 50.8843 36.4547C51.2639 38.3629 50.9368 40.3439 49.964 42.0288L46.8576 40.2353C47.3953 39.3041 47.576 38.2091 47.3662 37.1545C47.1565 36.0999 46.5704 35.1575 45.7174 34.5029C44.8643 33.8483 43.8023 33.5262 42.7293 33.5965C41.6563 33.6668 40.6455 34.1248 39.8852 34.8852C39.1248 35.6455 38.6668 36.6563 38.5965 37.7293C38.5262 38.8023 38.8483 39.8643 39.5029 40.7174C40.1575 41.5704 41.0999 42.1565 42.1545 42.3662C43.2091 42.576 44.3041 42.3952 45.2353 41.8576L47.0288 44.964Z" fill="#171717"/>
<path d="M47.0288 45.036C45.3439 44.0632 43.3629 43.7362 41.4547 44.1157C39.5466 44.4953 37.8415 45.5555 36.6571 47.099C35.4728 48.6425 34.8899 50.5639 35.0172 52.5053C35.1444 54.4466 35.9731 56.2755 37.3488 57.6512C38.7245 59.0269 40.5534 59.8556 42.4947 59.9828C44.4361 60.1101 46.3575 59.5272 47.901 58.3429C49.4445 57.1585 50.5048 55.4534 50.8843 53.5453C51.2639 51.6371 50.9368 49.6561 49.964 47.9712L46.8576 49.7647C47.3953 50.6959 47.576 51.7909 47.3662 52.8455C47.1565 53.9001 46.5704 54.8425 45.7174 55.4971C44.8643 56.1517 43.8023 56.4738 42.7293 56.4035C41.6563 56.3332 40.6455 55.8752 39.8852 55.1148C39.1248 54.3545 38.6668 53.3437 38.5965 52.2707C38.5262 51.1977 38.8483 50.1357 39.5029 49.2826C40.1575 48.4296 41.0999 47.8435 42.1545 47.6338C43.2091 47.424 44.3041 47.6048 45.2353 48.1424L47.0288 45.036Z" fill="#171717"/>
<path d="M52.9712 44.964C54.6561 45.9368 56.6371 46.2638 58.5453 45.8843C60.4534 45.5047 62.1585 44.4445 63.3429 42.901C64.5272 41.3575 65.1101 39.4361 64.9828 37.4947C64.8556 35.5534 64.0269 33.7245 62.6512 32.3488C61.2755 30.9731 59.4466 30.1444 57.5053 30.0172C55.5639 29.8899 53.6425 30.4728 52.099 31.6571C50.5555 32.8415 49.4952 34.5466 49.1157 36.4547C48.7361 38.3629 49.0632 40.3439 50.036 42.0288L53.1424 40.2353C52.6047 39.3041 52.424 38.2091 52.6338 37.1545C52.8435 36.0999 53.4296 35.1575 54.2826 34.5029C55.1357 33.8483 56.1977 33.5262 57.2707 33.5965C58.3437 33.6668 59.3545 34.1248 60.1148 34.8852C60.8752 35.6455 61.3332 36.6563 61.4035 37.7293C61.4738 38.8023 61.1517 39.8643 60.4971 40.7174C59.8425 41.5704 58.9001 42.1565 57.8455 42.3662C56.7909 42.576 55.6959 42.3952 54.7647 41.8576L52.9712 44.964Z" fill="#171717"/>
<path d="M52.9712 45.036C54.6561 44.0632 56.6371 43.7362 58.5453 44.1157C60.4534 44.4953 62.1585 45.5555 63.3429 47.099C64.5272 48.6425 65.1101 50.5639 64.9828 52.5053C64.8556 54.4466 64.0269 56.2755 62.6512 57.6512C61.2755 59.0269 59.4466 59.8556 57.5053 59.9828C55.5639 60.1101 53.6425 59.5272 52.099 58.3429C50.5555 57.1585 49.4952 55.4534 49.1157 53.5453C48.7361 51.6371 49.0632 49.6561 50.036 47.9712L53.1424 49.7647C52.6047 50.6959 52.424 51.7909 52.6338 52.8455C52.8435 53.9001 53.4296 54.8425 54.2826 55.4971C55.1357 56.1517 56.1977 56.4738 57.2707 56.4035C58.3437 56.3332 59.3545 55.8752 60.1148 55.1148C60.8752 54.3545 61.3332 53.3437 61.4035 52.2707C61.4738 51.1977 61.1517 50.1357 60.4971 49.2826C59.8425 48.4296 58.9001 47.8435 57.8455 47.6338C56.7909 47.424 55.6959 47.6048 54.7647 48.1424L52.9712 45.036Z" fill="#171717"/>
<path d="M55.6035 49.5953C56.921 48.8347 58.6056 49.2861 59.3662 50.6036C60.1269 51.921 59.6755 53.6056 58.358 54.3663C57.0406 55.1269 55.3559 54.6755 54.5953 53.358C53.8347 52.0406 54.2861 50.356 55.6035 49.5953Z" fill="#171717"/>
<defs>
<filter id="filter0_d" x="0" y="0" width="100" height="110" filterUnits="userSpaceOnUse" color-interpolation-filters="sRGB">
<feFlood flood-opacity="0" result="BackgroundImageFix"/>
<feColorMatrix in="SourceAlpha" type="matrix" values="0 0 0 0 0 0 0 0 0 0 0 0 0 0 0 0 0 0 127 0"/>
<feOffset dy="4"/>
<feGaussianBlur stdDeviation="10"/>
<feColorMatrix type="matrix" values="0 0 0 0 0 0 0 0 0 0 0 0 0 0 0 0 0 0 0.25 0"/>
<feBlend mode="normal" in2="BackgroundImageFix" result="effect1_dropShadow"/>
<feBlend mode="normal" in="SourceGraphic" in2="effect1_dropShadow" result="shape"/>
</filter>
</defs>
</svg>
