<svg width="70" height="70" viewBox="0 0 70 70" fill="none" xmlns="http://www.w3.org/2000/svg">
<g clip-path="url(#clip0)">
<path d="M26.6604 0C41.3614 0 53.3217 11.9602 53.3217 26.6612C53.3217 33.2752 50.8999 39.3335 46.8978 43.9983L50.0401 47.1406L52.9402 44.2406L68.2 59.5004C70.5987 61.8991 70.5987 65.802 68.2 68.2008C65.8013 70.5994 61.8984 70.5997 59.4995 68.2008L44.2397 52.941L47.1399 50.0411L43.9976 46.8988C39.3327 50.9008 33.2743 53.3225 26.6604 53.3225C11.9594 53.3225 -0.000839233 41.3623 -0.000839233 26.6612C-0.000839233 11.9602 11.9594 0 26.6604 0ZM62.4 65.3006C63.1996 66.1001 64.5002 66.1001 65.2998 65.3006C66.0992 64.5011 66.0992 63.2003 65.2998 62.4009L52.9403 50.0415L50.0407 52.9412L62.4 65.3006ZM26.6604 49.2208C39.0997 49.2208 49.2199 39.1006 49.2199 26.6612C49.2199 14.2219 39.0997 4.10173 26.6604 4.10173C14.2211 4.10173 4.10089 14.2219 4.10089 26.6612C4.10089 39.1006 14.2211 49.2208 26.6604 49.2208Z" fill="#ECECEC"/>
<path d="M26.6614 8.20361C36.839 8.20361 45.1191 16.4838 45.1191 26.6614C45.1191 36.839 36.839 45.1192 26.6614 45.1192C16.4837 45.1192 8.20357 36.839 8.20357 26.6614C8.20357 16.4838 16.4837 8.20361 26.6614 8.20361ZM26.6614 41.0175C34.5773 41.0175 41.0174 34.5773 41.0174 26.6614C41.0174 18.7455 34.5773 12.3053 26.6614 12.3053C18.7454 12.3053 12.3053 18.7455 12.3053 26.6614C12.3053 34.5773 18.7454 41.0175 26.6614 41.0175Z" fill="#ECECEC"/>
<path d="M22.5596 19.6592L26.6614 23.7609L30.7631 19.6592L33.6636 22.5595L29.5618 26.6612L33.6636 30.763L30.7631 33.6633L26.6614 29.5616L22.5596 33.6633L19.6593 30.763L23.761 26.6612L19.6593 22.5595L22.5596 19.6592Z" fill="#ECECEC"/>
</g>
<defs>
<clipPath id="clip0">
<rect width="70" height="70" fill="white" transform="matrix(-1 0 0 1 70 0)"/>
</clipPath>
</defs>
</svg>
